<svg version="1.1" id="Layer_1" xmlns="http://www.w3.org/2000/svg" x="0" y="0" viewBox="0 0 129.5 127.8" xml:space="preserve"><style>.st0{fill:#231f20}.st2{fill:#7f8f9}.st4{fill:#fff}</style><path class="st0" d="M111.6 7.8c-.2 0-.4-.1-.5-.2-.3-.3-.3-.8 0-1.1l1.3-1.3c.3-.3.8-.3 1.1 0 .3.3.3.8 0 1.1l-1.3 1.3c-.2.2-.4.2-.6.2zm-4 4.1c-.2 0-.4-.1-.5-.2-.3-.3-.3-.8 0-1.1l1.3-1.3c.3-.3.8-.3 1.1 0 .3.3.3.8 0 1.1l-1.3 1.3c-.3.1-.5.2-.6.2zm5.3 0c-.2 0-.4-.1-.5-.2l-1.3-1.3c-.3-.3-.3-.8 0-1.1.3-.3.8-.3 1.1 0l1.3 1.3c.3.3.3.8 0 1.1-.3.1-.4.2-.6.2zm-4.1-4.1c-.2 0-.4-.1-.5-.2L107 6.3c-.3-.3-.3-.8 0-1.1.3-.3.8-.3 1.1 0l1.3 1.3c.3.3.3.8 0 1.1-.2.2-.4.2-.6.2zM9.3 113.1c-.2 0-.4-.1-.5-.2-.3-.3-.3-.8 0-1.1l1.3-1.3c.3-.3.8-.3 1.1 0s.3.8 0 1.1l-1.3 1.3c-.2.1-.4.2-.6.2zm-4.1 4c-.2 0-.4-.1-.5-.2-.3-.3-.3-.8 0-1.1l1.3-1.3c.3-.3.8-.3 1.1 0 .3.3.3.8 0 1.1l-1.3 1.3c-.2.1-.4.2-.6.2zm5.4 0c-.2 0-.4-.1-.5-.2l-1.3-1.3c-.3-.3-.3-.8 0-1.1.3-.3.8-.3 1.1 0l1.3 1.3c.3.3.3.8 0 1.1-.3.1-.5.2-.6.2zm-4.1-4c-.2 0-.4-.1-.5-.2l-1.3-1.3c-.3-.3-.3-.8 0-1.1.3-.3.8-.3 1.1 0l1.3 1.3c.3.3.3.8 0 1.1-.2.1-.4.2-.6.2zm95.9-24.2c-.2 0-.4-.1-.5-.2-.3-.3-.3-.8 0-1.1l1.3-1.3c.3-.3.8-.3 1.1 0 .3.3.3.8 0 1.1l-1.3 1.3c-.3.2-.5.2-.6.2zM98.3 93c-.2 0-.4-.1-.5-.2-.3-.3-.3-.8 0-1.1l1.3-1.3c.3-.3.8-.3 1.1 0 .3.3.3.8 0 1.1l-1.3 1.3c-.2.1-.4.2-.6.2zm5.3 0c-.2 0-.4-.1-.5-.2l-1.3-1.3c-.3-.3-.3-.8 0-1.1.3-.3.8-.3 1.1 0l1.3 1.3c.3.3.3.8 0 1.1-.2.1-.4.2-.6.2zm-4-4.1c-.2 0-.4-.1-.5-.2l-1.3-1.3c-.3-.3-.3-.8 0-1.1.3-.3.8-.3 1.1 0l1.3 1.3c.3.3.3.8 0 1.1-.2.2-.4.2-.6.2zm19.7-52.3l-.1-1.5h.1v1.5zm-2.1 0h-1v-1.5h1v1.5zm-3 0h-1v-1.5h1v1.5zm-3 0h-1v-1.5h1v1.5zm-3 0h-1v-1.5h1v1.5zm-3 0h-1v-1.5h1v1.5zm-3 0h-1v-1.5h1v1.5zm17.9-9.6h-1v-1.5h1V27zm-3 0h-1v-1.5h1V27zm-3 0h-1v-1.5h1V27zm-3 0h-1v-1.5h1V27zm-3 0h-1v-1.5h1V27zm12.5 4.8H119c-.4 0-.8-.3-.8-.8 0-.4.3-.8.8-.8h1.5c.4 0 .8.3.8.8s-.3.8-.7.8zm-4.3 0h-.8c-.4 0-.8-.3-.8-.8 0-.4.3-.8.8-.8h.8c.4 0 .8.3.8.8-.1.5-.4.8-.8.8zm-3.6 0h-9.3c-.4 0-.8-.3-.8-.8 0-.4.3-.8.8-.8h9.3c.4 0 .8.3.8.8-.1.5-.4.8-.8.8zm16.1-8.2h-1.5c-.4 0-.8-.3-.8-.8 0-.4.3-.8.8-.8h1.5c.4 0 .8.3.8.8-.1.5-.4.8-.8.8zm-4.4 0h-.8c-.4 0-.8-.3-.8-.8 0-.4.3-.8.8-.8h.8c.4 0 .8.3.8.8s-.3.8-.8.8zm-3.5 0h-9.3c-.4 0-.8-.3-.8-.8 0-.4.3-.8.8-.8h9.3c.4 0 .8.3.8.8-.1.5-.4.8-.8.8zm7.9 47.7h-1v-1.5h1v1.5zm-3 0h-1v-1.5h1v1.5zm-3 0h-1v-1.5h1v1.5zm-3 0h-1v-1.5h1v1.5zm-3 0h-1v-1.5h1v1.5zm-3 0h-1v-1.5h1v1.5zm-3 0l-.1-1.5.1 1.5zm12-9.6h-1v-1.5h1v1.5zm-3 0h-1v-1.5h1v1.5zm-3 0h-1v-1.5h1v1.5zm-3 0h-1v-1.5h1v1.5zm-3 0h-1v-1.5h1v1.5zm.1 4.8h-1.5c-.4 0-.8-.3-.8-.8 0-.4.3-.8.8-.8h1.5c.4 0 .8.3.8.8-.1.4-.4.8-.8.8zm3.6 0h-.8c-.4 0-.8-.3-.8-.8 0-.4.3-.8.8-.8h.8c.4 0 .8.3.8.8 0 .4-.4.8-.8.8zm12 0h-9.3c-.4 0-.8-.3-.8-.8 0-.4.3-.8.8-.8h9.3c.4 0 .8.3.8.8 0 .4-.4.8-.8.8zm-23.8-8.3h-1.5c-.4 0-.8-.3-.8-.8 0-.4.3-.8.8-.8h1.5c.4 0 .8.3.8.8-.1.5-.4.8-.8.8zm3.6 0h-.8c-.4 0-.8-.3-.8-.8 0-.4.3-.8.8-.8h.8c.4 0 .8.3.8.8s-.4.8-.8.8zm12 0H109c-.4 0-.8-.3-.8-.8 0-.4.3-.8.8-.8h9.3c.4 0 .8.3.8.8s-.4.8-.8.8z"/><circle cx="95.7" cy="106.8" r="2.4" fill="#84dbff"/><circle class="st2" cx="87.8" cy="7.1" r="2.4"/><circle cx="12.9" cy="97.5" r="2.4" fill="#ffd05b"/><path class="st2" d="M32.7 46.2C32.7 59.7 38 75 46.4 85c-2.4 1.4-4.9 2.3-7.5 2.7-.9.1-1.9.2-2.8.2s-1.9-.1-2.8-.2C15.9 84.9 2.7 58.4 2.7 36.5c0-21.1 12.5-33.8 33.5-33.8 10.9 0 19.6 3.4 25.3 9.7-17.9 2-28.8 14.5-28.8 33.8z"/><path class="st0" d="M6 35.9H4.5C4.8 11.2 21.6 5.8 31.6 4.7l.2 1.5C22.3 7.2 6.3 12.4 6 35.9z"/><path class="st4" d="M93.3 27.3c-5.6-8.9-15.6-13.1-26.9-13.1-17.5 0-31.7 10-31.7 32 0 20.8 12.7 45 28.9 47.5l-5.1 7.1h15.7l-5.1-7.1C80.3 92 89.8 80.1 94.6 66.1"/><path class="st0" d="M95.3 66.3l-1.4-.5.3-.9 1.4.5c0 .3-.1.6-.3.9zm1-2.9l-1.5-.4c.1-.3.2-.6.3-1l1.4.4c0 .4-.1.7-.2 1zm.8-2.9l-1.5-.4c.1-.3.2-.6.2-1l1.5.3c-.1.5-.1.8-.2 1.1zm.6-2.9l-1.5-.3c.1-.3.1-.6.2-1l1.5.3c0 .3-.1.6-.2 1zm.6-3l-1.5-.2c0-.3.1-.7.1-1l1.5.2c0 .3-.1.6-.1 1zm.3-3l-1.5-.1c0-.3.1-.7.1-1l1.5.1c0 .3 0 .6-.1 1zm.2-3.1l-1.5-.1v-1h1.5c.1.4.1.8 0 1.1zm-1.4-3v-1l1.5-.1v1l-1.5.1zm-.1-3c0-.3-.1-.7-.1-1l1.5-.2c0 .3.1.7.1 1l-1.5.2zm-.4-2.9c0-.3-.1-.6-.2-1l1.5-.3c.1.3.1.7.2 1l-1.5.3zm-.5-2.9c-.1-.3-.2-.6-.2-.9l1.5-.4c.1.3.2.7.2 1l-1.5.3zm-.8-2.8l-.3-.9 1.4-.5c.1.3.2.6.3 1l-1.4.4zm-1.1-2.7c-.1-.3-.3-.6-.4-.9l1.3-.7c.1.3.3.6.4.9l-1.3.7zm-1.3-2.6c-.2-.3-.3-.6-.5-.8L94 27c.2.3.4.6.5.9l-1.3.7zm-53.7 17H38c.3-22.1 15.4-27 24.3-27.9l.2 1.5c-10.4 1.1-22.8 6.6-23 26.4zm-4 66.9H37v1h-1.5zm0 12H37v1h-1.5zm0-9H37v1h-1.5zm0 6H37v1h-1.5zm0-3H37v1h-1.5zm0 9H37v.2h-1.5z"/><path class="st0" d="M95.3 66.3l-1.4-.5c-5.2 15-14.9 25.6-24.8 27.1-.3 0-.5.2-.6.5-.1.2-.1.5.1.7l4.2 5.9H60l4.2-5.9c.2-.2.2-.5.1-.7-.1-.2-.3-.4-.6-.5-16.2-2.5-28.3-26.7-28.3-46.7C35.4 26.6 47 15 66.4 15c11.8 0 21.1 4.5 26.3 12.7l1.3-.8c-5.5-8.7-15.2-13.4-27.5-13.4h-.7C59.6 4.9 49.4 0 36.2 0 13.9 0 0 14 0 36.5s13.5 49.8 31.8 53.7l-5 6.9c-.2.2-.2.5-.1.8.1.3.4.4.7.4h8.1v12.8H37V98.3h8c.3 0 .5-.2.7-.4.1-.2.1-.6-.1-.8l-5-6.9c3.1-.6 6-2 8.7-3.8 3.9 4 8.3 6.8 13 7.9l-4.4 6.1c-.2.2-.2.5-.1.8.1.3.4.4.7.4h7.1V113h1.5v-11.4h7.1c.3 0 .5-.2.7-.4.1-.2.1-.6-.1-.8l-4.4-6.1c10.3-2.3 19.7-12.9 24.9-28zM39.2 88.9c-.3 0-.5.2-.6.5-.1.2-.1.5.1.7l4.9 6.7H28.9l4.9-6.7c.2-.2.2-.5.1-.7-.1-.2-.3-.4-.6-.5-18.2-2.8-31.7-30-31.7-52.4 0-21.9 13-35 34.7-35 12.4 0 22 4.3 27.9 12C45.5 14.5 34 26.8 34 46.2c0 13.7 5.6 29.3 14.3 39.1-2.8 1.8-5.9 3.1-9.1 3.6zm26.5 31.2h1.5v1h-1.5zm0 6h1.5v1h-1.5zm0-3h1.5v1h-1.5zm0-6h1.5v1h-1.5zm0-3h1.5v1h-1.5z"/><path class="st4" d="M101 46.7h19.2"/><path class="st0" d="M101 46h19.2v1.5H101z"/><circle class="st4" cx="124.3" cy="46.7" r="4.2"/><path class="st0" d="M124.3 51.6c-2.7 0-4.9-2.2-4.9-4.9s2.2-4.9 4.9-4.9 4.9 2.2 4.9 4.9c.1 2.7-2.1 4.9-4.9 4.9zm0-8.3c-1.9 0-3.4 1.5-3.4 3.4s1.5 3.4 3.4 3.4 3.4-1.5 3.4-3.4c.1-1.9-1.5-3.4-3.4-3.4z"/><path class="st4" d="M94.6 42.5l-3.7-2.4"/><path transform="rotate(-57.078 92.782 41.324)" class="st0" d="M92 39.1h1.5v4.4H92z"/><path class="st4" d="M90.9 53.3l3.7-2.4"/><path transform="rotate(-32.913 92.776 52.085)" class="st0" d="M90.6 51.3H95v1.5h-4.4z"/><path class="st4" d="M92 46.7h-4.2"/><path class="st0" d="M87.8 46H92v1.5h-4.2z"/></svg>