<svg version="1.1" id="Layer_1" xmlns="http://www.w3.org/2000/svg" x="0" y="0" viewBox="0 0 129.5 128.5" xml:space="preserve"><style>.st1{fill:#84dbff}.st2{fill:#231f20}.st3{fill:#fff}.st4{fill:#6e7a86}</style><path fill="#ced5e0" d="M79.8 117.6H46.6l3 5.1h27.2z"/><path transform="rotate(90 63.2 83.424)" class="st1" d="M37.5 36.4h51.4v94.1H37.5z"/><path class="st2" d="M117.7 33.3c-.2 0-.4-.1-.5-.2-.3-.3-.3-.8 0-1.1l1.3-1.3c.3-.3.8-.3 1.1 0 .3.3.3.8 0 1.1l-1.3 1.3c-.2.2-.4.2-.6.2zM113.6 37.5c-.2 0-.4-.1-.5-.2-.3-.3-.3-.8 0-1.1l1.3-1.3c.3-.3.8-.3 1.1 0 .3.3.3.8 0 1.1l-1.3 1.3c-.2.1-.4.2-.6.2zM119 37.5c-.2 0-.4-.1-.5-.2l-1.3-1.3c-.3-.3-.3-.8 0-1.1.3-.3.8-.3 1.1 0l1.3 1.3c.3.3.3.8 0 1.1-.2.1-.4.2-.6.2zM114.9 33.3c-.2 0-.4-.1-.5-.2l-1.3-1.3c-.3-.3-.3-.8 0-1.1.3-.3.8-.3 1.1 0l1.3 1.3c.3.3.3.8 0 1.1-.2.2-.4.2-.6.2zM56.6 28.9c-.2 0-.4-.1-.5-.2-.3-.3-.3-.8 0-1.1l1.3-1.3c.3-.3.8-.3 1.1 0 .3.3.3.8 0 1.1l-1.3 1.3c-.2.1-.4.2-.6.2zM52.5 33c-.2 0-.4-.1-.5-.2-.3-.3-.3-.8 0-1.1l1.3-1.3c.3-.3.8-.3 1.1 0 .3.3.3.8 0 1.1L53 32.8c-.1.1-.3.2-.5.2zM57.9 33c-.2 0-.4-.1-.5-.2l-1.3-1.3c-.3-.3-.3-.8 0-1.1.3-.3.8-.3 1.1 0l1.3 1.3c.3.3.3.8 0 1.1-.2.1-.4.2-.6.2zM53.8 28.9c-.2 0-.4-.1-.5-.2L52 27.3c-.3-.3-.3-.8 0-1.1.3-.3.8-.3 1.1 0l1.3 1.3c.3.3.3.8 0 1.1-.2.2-.4.3-.6.3zM127.4 98.4c-.2 0-.4-.1-.5-.2-.3-.3-.3-.8 0-1.1l1.3-1.3c.3-.3.8-.3 1.1 0 .3.3.3.8 0 1.1l-1.3 1.3c-.2.2-.4.2-.6.2zM123.3 102.6c-.2 0-.4-.1-.5-.2-.3-.3-.3-.8 0-1.1l1.3-1.3c.3-.3.8-.3 1.1 0 .3.3.3.8 0 1.1l-1.3 1.3c-.2.1-.4.2-.6.2zM128.8 102.6c-.2 0-.4-.1-.5-.2l-1.3-1.3c-.3-.3-.3-.8 0-1.1.3-.3.8-.3 1.1 0l1.3 1.3c.3.3.3.8 0 1.1-.3.1-.5.2-.6.2zM124.6 98.4c-.2 0-.4-.1-.5-.2l-1.3-1.3c-.3-.3-.3-.8 0-1.1.3-.3.8-.3 1.1 0l1.3 1.3c.3.3.3.8 0 1.1-.2.2-.4.2-.6.2z"/><path class="st3" d="M30.3 2.8l-4-1.8-.1.2c-.9 1.5-2.5 2.4-4.3 2.2h-1c-1.8 0-3.4-.9-4.2-2.5l-.1-.2-4.1 1.5.1.3c.5 1.7-.1 3.5-1.5 4.6-.3.2-.5.5-.7.7C9.2 9 7.4 9.5 5.7 9h-.2l-1.8 4 .3.1c1.5.9 2.4 2.5 2.2 4.3v1c0 1.8-.9 3.4-2.5 4.2l-.2.1 1.5 4 .3-.1c1.7-.5 3.5.1 4.6 1.5.2.3.5.5.7.7 1.2 1.2 1.7 3 1.2 4.7l-.1.3 4 1.8.1-.2c.9-1.5 2.5-2.4 4.3-2.2h1c1.8 0 3.4.9 4.2 2.5l.1.2 4.1-1.5-.1-.3c-.5-1.7.1-3.5 1.5-4.6.3-.2.5-.5.7-.7 1.2-1.2 3-1.7 4.7-1.2l.3.1 1.8-4-.2-.1c-1.5-.9-2.4-2.5-2.2-4.3v-1c0-1.8.9-3.4 2.5-4.2l.2-.1L37 9.9l-.2.1c-1.7.5-3.5-.1-4.6-1.5-.2-.3-.5-.5-.7-.7-1.2-1.2-1.7-3-1.2-4.7v-.3z"/><path class="st2" d="M25.4 36.6c-.3 0-.5-.2-.7-.4l-.1-.2c-.6-1.3-2-2.1-3.5-2.1H20c-1.5-.1-2.9.6-3.6 1.9l-.1.2c-.2.3-.6.5-1 .3l-4-1.8c-.4-.2-.5-.6-.4-.9l.1-.3c.5-1.4.1-2.9-1-3.9-.3-.3-.5-.5-.7-.8-1-1.1-2.5-1.6-3.9-1.2l-.3.1c-.4.1-.8-.1-.9-.5l-1.6-4.1c-.1-.4 0-.8.4-.9l.2-.1c1.3-.6 2.1-2 2.1-3.5v-1.1c.1-1.5-.6-2.9-1.9-3.6l-.2-.1c-.2-.2-.3-.6-.2-1l1.8-4c.2-.3.6-.5.9-.3l.3.1c1.3.5 2.9.1 3.9-1 .3-.3.5-.5.8-.7 1.1-1 1.6-2.5 1.2-3.9l-.1-.3c-.1-.4.1-.8.5-.9L16.4 0c.4-.1.8 0 .9.4l.1.2c.6 1.3 2 2.1 3.5 2.1H22c1.5.1 2.9-.6 3.6-1.9l.1-.2c.2-.3.6-.5 1-.3l4 1.8c.4.2.5.6.4.9l-.1.3c-.5 1.4-.1 2.9 1 3.9.3.3.5.5.7.8 1 1.1 2.5 1.6 3.9 1.2l.3-.1c.4-.1.8.1.9.5l1.5 4.1c.1.4 0 .8-.4.9l-.2.1c-1.3.6-2.1 2-2.1 3.5v1.1c-.1 1.5.6 2.9 1.9 3.6l.2.1c.3.2.5.6.3 1l-1.8 4c-.2.4-.6.5-.9.4l-.3-.1c-1.3-.5-2.9-.1-3.9 1-.3.3-.5.5-.8.7-1.1 1-1.6 2.5-1.2 3.9l.1.3c.1.4-.1.8-.5.9l-4.1 1.5h-.2zm-4.3-4.2c1.9 0 3.7 1 4.6 2.5l2.8-1.1c-.3-1.8.3-3.7 1.8-5 .2-.2.5-.4.7-.7 1.3-1.3 3.3-1.9 5.1-1.5l1.2-2.8c-1.5-1-2.4-2.8-2.3-4.8v-1c0-2 1-3.7 2.5-4.6l-1.1-2.8c-1.8.3-3.7-.3-5-1.8-.2-.2-.4-.5-.7-.7C29.5 6.9 29 5 29.4 3.2L26.7 2c-1 1.5-2.8 2.4-4.8 2.3H21l-.1-.8v.8c-1.9 0-3.7-1-4.6-2.5l-2.8 1.1c.4 1.8-.3 3.7-1.8 5-.3.1-.5.3-.7.5-1.3 1.3-3.3 1.9-5.1 1.5l-1.2 2.8c1.5 1 2.4 2.8 2.3 4.8v1c0 2-1 3.7-2.5 4.6l1.1 2.8c1.8-.3 3.7.3 5 1.8.2.2.4.5.7.7 1.4 1.4 1.9 3.3 1.5 5.1l2.8 1.2c1-1.5 2.8-2.4 4.8-2.3h.9-.2z"/><path class="st2" d="M21 30.3h-.4v-1.5h.9l.1 1.5H21zm-2.5-.2c-.3-.1-.7-.2-1-.3l.4-1.4c.3.1.6.2.9.2l-.3 1.5zm5.3-.1l-.3-1.5.9-.3.5 1.4c-.4.2-.8.3-1.1.4zm-8.3-1c-.3-.2-.6-.3-.9-.5l.8-1.3c.3.2.5.3.8.5l-.7 1.3zm11.2-.1l-.7-1.4c.3-.1.5-.3.8-.5l.8 1.2c-.2.3-.5.5-.9.7zm-13.8-1.8c-.3-.2-.5-.5-.8-.8l1.1-1c.2.2.4.5.7.7l-1 1.1zm16.4-.1l-1-1.1c.2-.2.4-.4.6-.7l1.1 1c-.2.3-.4.5-.7.8zm-18.5-2.3c-.2-.3-.4-.6-.5-.9l1.3-.7c.1.3.3.5.5.8l-1.3.8zm20.5-.2l-1.3-.8c.2-.3.3-.5.4-.8l1.4.7c-.1.3-.3.6-.5.9zM9.5 21.8c-.1-.3-.2-.7-.3-1l1.5-.3c.1.3.1.6.2.9l-1.4.4zm23.1-.3l-1.4-.4c.1-.3.2-.6.2-.9l1.5.3c-.2.4-.2.7-.3 1zM9 18.6v-.3-.7l1.5.1v1L9 18.6zm22.5-.2v-.9l1.5-.1v1h-1.5zm-20.7-2.6l-1.5-.4c.1-.3.2-.7.3-1l1.4.5c0 .3-.1.6-.2.9zm20.4-.2l-.3-.9 1.4-.5c.1.3.2.7.3 1l-1.4.4zm-19.4-2.4l-1.3-.7.6-.9 1.2.8c-.2.3-.3.5-.5.8zm18.3-.2c-.2-.3-.3-.5-.5-.8l1.2-.9.6.9-1.3.8zm-16.6-2l-1.1-1c.2-.3.5-.5.8-.7l1 1.1c-.3.1-.5.4-.7.6zm14.9-.2c-.2-.2-.5-.4-.7-.6l1-1.2c.3.2.5.5.8.7l-1.1 1.1zM15.7 9.3L14.9 8c.3-.2.6-.3.9-.5l.6 1.4c-.2.1-.4.2-.7.4zm10.4-.1c-.3-.2-.5-.3-.8-.4l.6-1.4c.3.1.6.3 1 .5l-.8 1.3zm-1.4-.7l-.9-.3.4-1.4c.3.1.7.2 1 .3l-.5 1.4zm-6.4-.3l-.4-1.4c.3-.1.7-.2 1-.2l.3 1.4c-.3 0-.6.1-.9.2zm3.7-.3h-.9V6.3h1.1L22 7.9z"/><circle transform="rotate(-65.832 21.005 18.317)" class="st4" cx="21" cy="18.3" r="8.9"/><circle transform="rotate(-65.832 21.004 18.316)" class="st3" cx="21" cy="18.3" r="4.5"/><path class="st2" d="M21 23.5c-.7 0-1.5-.2-2.1-.5-1.3-.6-2.2-1.6-2.7-2.9-.5-1.3-.5-2.7.1-4 .8-1.9 2.7-3.1 4.8-3.1.7 0 1.5.2 2.1.5 2.6 1.2 3.8 4.3 2.6 6.9-.9 1.9-2.7 3.1-4.8 3.1zm0-8.9c-1.5 0-2.8.9-3.4 2.2-.4.9-.4 1.9-.1 2.8.4.9 1 1.7 2 2.1.5.2 1 .3 1.5.3 1.5 0 2.8-.9 3.4-2.2.8-1.9 0-4.1-1.9-4.9-.5-.2-1-.3-1.5-.3z"/><circle class="st3" cx="86.4" cy="49.4" r="17.2"/><path class="st2" d="M125.7 116.7H117V53.8c0-2.8-2.3-5.2-5.2-5.2h-7.5c-.4-9.6-8.3-17.2-18-17.2s-17.6 7.7-18 17.2H14.5c-2.8 0-5.2 2.3-5.2 5.2v62.9H.8c-.4 0-.8.3-.8.8v4.4c0 3.7 3 6.7 6.7 6.7h113.1c3.7 0 6.7-3 6.7-6.7v-4.4c-.1-.5-.4-.8-.8-.8zM86.4 32.9c9.1 0 16.5 7.4 16.5 16.5s-7.4 16.5-16.5 16.5-16.5-7.4-16.5-16.5 7.4-16.5 16.5-16.5zM10.9 53.8c0-2 1.6-3.7 3.7-3.7h53.9c.4 9.6 8.3 17.2 18 17.2s17.6-7.7 18-17.2h7.5c2 0 3.7 1.6 3.7 3.7v62.9H10.9V53.8zm114 68c0 2.9-2.3 5.2-5.2 5.2H6.7c-2.9 0-5.2-2.3-5.2-5.2v-3.6h123.4v3.6z"/><circle class="st4" cx="86.4" cy="49.4" r="14.9"/><path transform="rotate(-30 80.189 38.639)" class="st2" d="M79.4 37.8h1.5v1.6h-1.5z"/><path transform="rotate(-30 92.611 60.162)" class="st2" d="M91.9 59.4h1.5V61h-1.5z"/><path transform="rotate(-60 75.63 43.184)" class="st2" d="M74.9 42.4h1.5V44h-1.5z"/><path transform="rotate(-60 97.159 55.611)" class="st2" d="M96.4 54.8h1.5v1.6h-1.5z"/><path class="st2" d="M73.2 48.6h1.6v1.5h-1.6zM98 48.6h1.6v1.5H98z"/><path transform="rotate(-30.006 75.629 55.606)" class="st2" d="M74.8 54.9h1.6v1.5h-1.6z"/><path transform="rotate(-30 97.163 43.187)" class="st2" d="M96.4 42.4H98v1.5h-1.6z"/><g><path transform="rotate(-60 80.18 60.158)" class="st2" d="M79.4 59.4H81v1.5h-1.6z"/></g><g><path transform="rotate(-59.994 92.608 38.633)" class="st2" d="M91.8 37.9h1.6v1.5h-1.6z"/></g><g><path class="st2" d="M92.6 50.1h-7v-9h1.5v7.5h5.5z"/></g><g><path class="st2" d="M85.6 36.2h1.5v1.6h-1.5z"/></g><g><path class="st2" d="M85.6 61h1.5v1.6h-1.5z"/></g><path class="st3" d="M56 73.3v-8.2H33.6v8.2c0 4.5 6 8.4 9.2 10.2-3.2 1.8-9.2 5.7-9.2 10.2v8.2H56v-8.2c0-4.5-6-8.4-9.2-10.2C50 81.7 56 77.8 56 73.3z"/><g><path class="st2" d="M56.7 73.3v-7.4h2.1v-1.5H30.7v1.5h2.1v7.4c0 4.4 4.9 8 8.4 10.2-3.6 2.1-8.4 5.8-8.4 10.2v7.4h-2.1v1.5h28.1V101h-2.1v-7.4c0-4.4-4.9-8-8.4-10.2 3.6-2.1 8.4-5.8 8.4-10.1zm-10.3 9.5c-.2.1-.4.4-.4.7 0 .3.1.5.4.7 2.6 1.5 8.8 5.3 8.8 9.5v2h-.6v1.5h.6v3.9H34.4v-3.9h.2v-1.5h-.2v-2c0-4.2 6.2-8.1 8.8-9.5.2-.1.4-.4.4-.7 0-.3-.1-.5-.4-.7-1.9-1-5.5-3.2-7.4-5.9v-1.4H35c-.3-.7-.5-1.5-.5-2.2v-7.4h20.9v7.4c-.2 4.2-6.3 8-9 9.5z"/><path class="st2" d="M45.6 95.6h1v1.5h-1zM51.6 95.6h1v1.5h-1zM48.6 95.6h1v1.5h-1zM39.6 95.6h1v1.5h-1zM42.6 95.6h1v1.5h-1zM36.6 95.6h1v1.5h-1zM37.7 75.5h1V77h-1zM43.7 75.5h1V77h-1zM40.7 75.5h1V77h-1zM46.7 75.5h1V77h-1zM52.7 75.5h1V77h-1zM49.7 75.5h1V77h-1zM44.3 85.9c-.2.1-.3.3-.3.5s.1.4.2.5c.1.1.3.2.5.2s.4-.1.5-.2c.1-.2.2-.3.2-.5s-.1-.4-.2-.5c-.2-.3-.6-.3-.9 0zM44.3 88.4c-.2.2-.3.4-.3.6 0 .2.1.4.2.5.1.1.3.2.5.2s.4-.1.5-.2c.1-.1.2-.3.2-.5s-.1-.4-.2-.5c-.2-.4-.7-.4-.9-.1zM44.3 91c-.1.1-.2.3-.2.5s.1.4.2.5c.1.1.3.2.5.2s.4-.1.5-.2c.1-.1.2-.3.2-.5s-.1-.4-.2-.5c-.3-.3-.8-.3-1 0z"/></g><g><path class="st2" d="M70.2 25.2c-1.2 0-2.4-.2-3.6-.5-.3-.1-.4-.3-.5-.5-.1-.3 0-.5.2-.7l5.5-5.5-1.5-5-4.9-1.6-5.5 5.6c-.2.2-.5.3-.7.2-.3-.1-.5-.3-.5-.5-1.3-4.3-.2-9 3-12.1C64 2.3 67 1 70.3 1s6.3 1.3 8.6 3.6c.6.6 1.2 1.3 1.6 2.1h26.1c.6-1.1 1.3-2.1 2.2-3 2.3-2.3 5.3-3.6 8.6-3.6 1.2 0 2.4.2 3.6.5.3.1.4.3.5.5.1.3 0 .5-.2.7l-5.5 5.5 1.6 4.9 4.9 1.6 5.5-5.5c.2-.2.5-.3.7-.2.3.1.5.3.5.5 1.3 4.3.2 9-3 12.1-2.3 2.3-5.3 3.6-8.6 3.6s-6.3-1.3-8.6-3.6c-.9-.9-1.6-1.9-2.2-3H81.5c-.6 1.5-1.5 2.8-2.6 3.9-2.4 2.4-5.4 3.6-8.7 3.6zm-1.8-1.6c.6.1 1.2.2 1.9.2 2.8 0 5.5-1.1 7.5-3.1 1.1-1.1 1.9-2.4 2.5-3.9.1-.3.4-.5.7-.5h26c.3 0 .6.2.7.4.5 1.1 1.2 2.2 2.1 3 2 2 4.7 3.1 7.5 3.1 2.9 0 5.5-1.1 7.5-3.1 2.5-2.5 3.6-6 3-9.4l-4.9 4.9c-.2.2-.5.3-.8.2l-5.7-1.8c-.2-.1-.4-.3-.5-.5l-1.8-5.7c-.1-.3 0-.6.2-.8l4.9-4.9c-.6-.1-1.2-.2-1.9-.2-2.8 0-5.5 1.1-7.5 3.1-.9.9-1.6 1.9-2.1 3-.1.3-.4.4-.7.4H80c-.3 0-.5-.1-.6-.4-.5-.8-1-1.5-1.6-2.1-2-2-4.7-3.1-7.5-3.1-2.9 0-5.5 1.1-7.5 3.1-2.5 2.5-3.6 6-3 9.4l4.9-4.9c.2-.2.5-.3.8-.2l5.7 1.8c.2.1.4.3.5.5l1.8 5.7c.1.3 0 .6-.2.8l-4.9 5z"/></g><g><path class="st3" d="M92.5 77.8h-8.3c-.4 0-.8-.3-.8-.8 0-.4.3-.8.8-.8h8.3c.4 0 .8.3.8.8 0 .4-.3.8-.8.8zM95.8 80.8h-4.1c-.4 0-.8-.3-.8-.8 0-.4.3-.8.8-.8h4.1c.4 0 .8.3.8.8s-.4.8-.8.8zM100.2 77.8h-3.9c-.4 0-.8-.3-.8-.8 0-.4.3-.8.8-.8h3.9c.4 0 .8.3.8.8-.1.4-.4.8-.8.8zM88.8 80.8H88c-.4 0-.8-.3-.8-.8 0-.4.3-.8.8-.8h.8c.4 0 .8.3.8.8-.1.5-.4.8-.8.8z"/></g><g><path class="st2" d="M38.9 40.8h-8.3c-.4 0-.8-.3-.8-.8 0-.4.3-.8.8-.8h8.3c.4 0 .8.3.8.8s-.4.8-.8.8zM42.2 43.8h-4.1c-.4 0-.8-.3-.8-.8s.3-.8.8-.8h4.1c.4 0 .8.3.8.8s-.4.8-.8.8zM46.5 40.8h-3.9c-.4 0-.8-.3-.8-.8 0-.4.3-.8.8-.8h3.9c.4 0 .8.3.8.8s-.4.8-.8.8zM35.2 43.8h-.8c-.4 0-.8-.3-.8-.8s.3-.8.8-.8h.8c.4 0 .8.3.8.8s-.4.8-.8.8z"/></g><g><path class="st3" d="M74.3 99.7H66c-.4 0-.8-.3-.8-.8 0-.4.3-.8.8-.8h8.3c.4 0 .8.3.8.8s-.4.8-.8.8zM77.6 102.7h-4.1c-.4 0-.8-.3-.8-.8s.3-.8.8-.8h4.1c.4 0 .8.3.8.8s-.4.8-.8.8zM81.9 99.7H78c-.4 0-.8-.3-.8-.8 0-.4.3-.8.8-.8h3.9c.4 0 .8.3.8.8s-.4.8-.8.8zM70.6 102.7h-.8c-.4 0-.8-.3-.8-.8s.3-.8.8-.8h.8c.4 0 .8.3.8.8s-.4.8-.8.8z"/></g><g><circle class="st1" cx="46.6" cy="9.7" r="2.2"/></g><g><circle cx="3.4" cy="43.6" r="2.2" fill="#ffd05b"/></g><g><circle class="st4" cx="126.5" cy="64.3" r="2.2"/></g></svg>