<svg version="1.1" id="Layer_1" xmlns="http://www.w3.org/2000/svg" x="0" y="0" viewBox="0 0 129.5 126" xml:space="preserve"><style>.st0{fill:#231f20}.st1{fill:#fff}.st2{fill:#e6e9ee}.st3{fill:#ffd05b}.st5{fill:#7f8f9}</style><path class="st0" d="M90.4 2.8c-.2 0-.4-.1-.5-.2-.3-.3-.3-.8 0-1.1L91.2.2c.3-.3.8-.3 1.1 0 .3.3.3.8 0 1.1L91 2.6c-.2.1-.4.2-.6.2zm-4 4c-.2 0-.4-.1-.5-.2-.3-.3-.3-.8 0-1.1l1.3-1.3c.3-.3.8-.3 1.1 0 .3.3.3.8 0 1.1L87 6.6c-.2.1-.4.2-.6.2zm5.3 0c-.2 0-.4-.1-.5-.2l-1.3-1.3c-.3-.3-.3-.8 0-1.1.3-.3.8-.3 1.1 0l1.3 1.3c.3.3.3.8 0 1.1-.2.1-.4.2-.6.2zm-4-4c-.2 0-.4-.1-.5-.2l-1.3-1.3c-.3-.3-.3-.8 0-1.1.3-.3.8-.3 1.1 0l1.3 1.3c.3.3.3.8 0 1.1-.3.1-.5.2-.6.2zM5.3 80.7c-.2 0-.4-.1-.5-.2-.3-.3-.3-.8 0-1.1L6 78.1c.3-.3.8-.3 1.1 0 .3.3.3.8 0 1.1l-1.3 1.3c-.1.1-.3.2-.5.2zm-4 4c-.2 0-.4-.1-.5-.2-.3-.3-.3-.8 0-1.1L2 82.2c.3-.3.8-.3 1.1 0s.3.8 0 1.1l-1.3 1.3c-.2 0-.3.1-.5.1zm5.3 0c-.2 0-.4-.1-.5-.2l-1.3-1.3c-.3-.3-.3-.8 0-1.1.3-.3.8-.3 1.1 0l1.3 1.3c.3.3.3.8 0 1.1-.2.1-.4.2-.6.2zm-4.1-4c-.2 0-.4-.1-.5-.2L.7 79.2c-.3-.3-.3-.8 0-1.1.3-.3.8-.3 1.1 0l1.3 1.3c.3.3.3.8 0 1.1-.2.1-.4.2-.6.2zM108.8 122c-.2 0-.4-.1-.5-.2-.3-.3-.3-.8 0-1.1l1.3-1.3c.3-.3.8-.3 1.1 0 .3.3.3.8 0 1.1l-1.3 1.3c-.2.1-.4.2-.6.2zm-4 4c-.2 0-.4-.1-.5-.2-.3-.3-.3-.8 0-1.1l1.3-1.3c.3-.3.8-.3 1.1 0 .3.3.3.8 0 1.1l-1.3 1.3c-.3.1-.4.2-.6.2zm5.3 0c-.2 0-.4-.1-.5-.2l-1.3-1.3c-.3-.3-.3-.8 0-1.1.3-.3.8-.3 1.1 0l1.3 1.3c.3.3.3.8 0 1.1-.2.1-.4.2-.6.2zm-4.1-4c-.2 0-.4-.1-.5-.2l-1.3-1.3c-.3-.3-.3-.8 0-1.1.3-.3.8-.3 1.1 0l1.3 1.3c.3.3.3.8 0 1.1-.2.1-.4.2-.6.2z"/><path class="st1" d="M64.7 31.5v21.3l21.4-9.6V21.9zm0 0v21.3l-21.3-9.6V21.9z"/><path class="st0" d="M64.7 53.5c-.1 0-.2 0-.3-.1l-21.3-9.5c-.3-.1-.4-.4-.4-.7V21.9c0-.3.1-.5.3-.6.2-.1.5-.2.7-.1L65 30.7c.3.1.4.4.4.7v21.3c0 .3-.1.5-.3.6-.1.2-.2.2-.4.2zM44.2 42.8L64 51.6V31.9L44.2 23v19.8z"/><path class="st1" d="M86.1 21.9l-21.4 9.6-21.3-9.6 21.3-9.5zm21.3 9.6v21.3l21.3-9.6V21.9zm0 0v21.3l-21.3-9.6V21.9z"/><path class="st2" d="M128.7 21.9l-21.3 9.6-21.3-9.6 21.3-9.5z"/><path class="st3" d="M43.4 62.4v21.3l21.3-9.6V52.8z"/><path fill="#ff7058" d="M43.4 62.4v21.3l-21.3-9.6V52.8z"/><path class="st1" d="M64.7 52.8l-21.3 9.5-21.3-9.5 21.3-9.5z"/><path class="st5" d="M64.7 93.5v21.3l21.4-9.5V83.9z"/><path class="st1" d="M64.7 93.5v21.3l-21.3-9.5V83.9z"/><path class="st1" d="M86.1 83.9l-21.4 9.6-21.3-9.6 21.3-9.5z"/><path class="st0" d="M85.3 77.4h1.5v1h-1.5zm0 3h1.5v1h-1.5z"/><path transform="rotate(-24.091 87.833 61.575)" class="st0" d="M87.3 60.8h1v1.5h-1z"/><path transform="rotate(-24.091 101.525 55.445)" class="st0" d="M101 54.7h1v1.5h-1z"/><path transform="rotate(-24.091 104.263 54.219)" class="st0" d="M103.8 53.5h1V55h-1z"/><path class="st0" d="M85.3 65.4h1.5v1h-1.5z"/><path transform="rotate(-24.133 98.768 56.673)" class="st0" d="M98.3 55.9h1v1.5h-1z"/><path transform="rotate(-24.091 90.571 60.349)" class="st0" d="M90.1 59.6h1v1.5h-1z"/><path class="st0" d="M85.3 74.4h1.5v1h-1.5zm0-12h1.5v1h-1.5z"/><path transform="rotate(-24.133 96.037 57.901)" class="st0" d="M95.5 57.1h1v1.5h-1z"/><path transform="rotate(-24.097 93.289 59.116)" class="st0" d="M92.8 58.4h1v1.5h-1z"/><path class="st0" d="M85.3 68.4h1.5v1h-1.5zm0 3h1.5v1h-1.5z"/><path transform="rotate(-65.86 81.63 60.358)" class="st0" d="M80.9 59.9h1.5v1h-1.5z"/><path transform="rotate(-65.852 84.366 61.586)" class="st0" d="M83.6 61.1h1.5v1h-1.5z"/><path transform="rotate(-65.901 76.16 57.913)" class="st0" d="M75.4 57.4h1.5v1h-1.5z"/><path transform="rotate(-65.896 78.896 59.136)" class="st0" d="M78.1 58.6h1.5v1h-1.5z"/><path transform="rotate(-65.852 67.938 54.232)" class="st0" d="M67.2 53.7h1.5v1h-1.5z"/><path transform="rotate(-65.901 73.422 56.687)" class="st0" d="M72.7 56.2h1.5v1h-1.5z"/><path transform="rotate(-65.86 70.677 55.455)" class="st0" d="M69.9 55h1.5v1h-1.5z"/><path class="st0" d="M21.3 43.5h1.5v1h-1.5zm0-6h1.5v1h-1.5zm0 3h1.5v1h-1.5zm0 6h1.5v1h-1.5zm0 3h1.5v1h-1.5z"/><path transform="rotate(-24.133 32.038 27.002)" class="st0" d="M31.5 26.3h1v1.5h-1z"/><path transform="rotate(-24.097 34.775 25.773)" class="st0" d="M34.3 25h1v1.5h-1z"/><path transform="rotate(-24.097 37.513 24.548)" class="st0" d="M37 23.8h1v1.5h-1z"/><path transform="rotate(-24.097 40.25 23.322)" class="st0" d="M39.8 22.6h1v1.5h-1z"/><path transform="rotate(-24.133 29.302 28.23)" class="st0" d="M28.8 27.5h1V29h-1z"/><path class="st0" d="M21.3 31.5h1.5v1h-1.5z"/><path transform="rotate(-24.097 23.823 30.676)" class="st0" d="M23.3 29.9h1v1.5h-1z"/><path transform="rotate(-24.097 26.562 29.451)" class="st0" d="M26.1 28.7h1v1.5h-1z"/><path class="st0" d="M21.3 34.5h1.5v1h-1.5z"/><path transform="rotate(-65.852 3.944 23.338)" class="st0" d="M3.2 22.8h1.5v1H3.2z"/><path transform="rotate(-65.864 6.684 24.565)" class="st0" d="M5.9 24.1h1.5v1H5.9z"/><path transform="rotate(-65.86 17.635 29.467)" class="st0" d="M16.9 29h1.5v1h-1.5z"/><path transform="rotate(-65.901 14.899 28.244)" class="st0" d="M14.1 27.7h1.5v1h-1.5z"/><path transform="rotate(-65.852 20.375 30.694)" class="st0" d="M19.6 30.2h1.5v1h-1.5z"/><path transform="rotate(-65.901 12.16 27.018)" class="st0" d="M11.4 26.5h1.5v1h-1.5z"/><path transform="rotate(-65.901 9.422 25.792)" class="st0" d="M8.7 25.3h1.5v1H8.7z"/><path class="st0" d="M129.5 21.9c0-.1 0-.2-.1-.3v-.1c-.1-.1-.1-.2-.2-.2h-.1l-21.3-9.6c-.2-.1-.4-.1-.6 0l-21 9.4-21-9.4c-.2-.1-.4-.1-.6 0l-21 9.4-21-9.4c-.2-.1-.4-.1-.6 0L.4 21.2c-.2.1-.4.4-.4.7v21.3c0 .3.2.6.4.7l20.9 9.4v20.9c0 .3.2.6.4.7l20.9 9.4v21.1c0 .3.2.6.4.7l21.3 9.5c.1 0 .2.1.3.1.1 0 .2 0 .3-.1l21.3-9.5c.3-.1.4-.4.4-.7V84.2l20.9-9.3c.3-.1.4-.4.4-.7V53.3l20.9-9.4c.3-.1.4-.4.4-.7l.3-21.3zm-42.7 1.2l14.9 6.7 4.9 2.2v19.7l-19.8-8.9V23.1zM65.5 51.6V31.9l12.8-5.7 7-3.2v19.7l-19.8 8.9zm-.8-38.4l19.5 8.7-8.6 3.8-10.9 4.9-19.5-8.7 19.5-8.7zm-20.5 9.9L64 31.9v19.7l-19.8-8.9V23.1zM1.5 42.8V22.7l.2-.4 20.4-9.1 20.6 9.2v20.4L22.1 52 1.5 42.8zm41.2 39.7l-19.8-8.9V54l13.7 6.1 6.1 2.7v19.7zm-1.2-21.8l-17.6-7.9 19.5-8.7 19.5 8.7-19.5 8.7-1.9-.8zm2.7 2.1L64 54v19.7l-19.8 8.9V62.8zM64 113.7l-19.8-8.9V85.1l12 5.4L64 94v19.7zm.7-21l-5.6-2.5L45.2 84l19.5-8.7L84.2 84l-6.9 3-12.6 5.7zm20.6 12.1l-19.8 8.9V94l14-6.3 5.8-2.6v19.7zm21.4-31.2l-20.6 9.2-20.6-9.2v-20l.2-.4 20.4-9.1 20.6 9.2v20.3zm.7-43l-1.5-.7-18-8.1 19.5-8.7 19.5 8.7-8.7 3.9-10.8 4.9zM128 42.8l-19.8 8.9V31.9l12.6-5.6 7.3-3.2v19.7zM42.6 7.6h-8.1c-.4 0-.8-.3-.8-.8 0-.4.3-.8.8-.8h8.1c.4 0 .8.3.8.8s-.3.8-.8.8zM45.8 10.6h-4c-.4 0-.8-.3-.8-.8 0-.4.3-.8.8-.8h4c.4 0 .8.3.8.8s-.4.8-.8.8zM50.1 7.6h-3.8c-.4 0-.8-.3-.8-.8 0-.4.3-.8.8-.8h3.8c.4 0 .8.3.8.8-.1.5-.4.8-.8.8zM39 10.6h-.8c-.4 0-.8-.3-.8-.8 0-.4.3-.8.8-.8h.8c.4 0 .8.3.8.8-.1.5-.4.8-.8.8zM111.1 92.8H103c-.4 0-.8-.3-.8-.8 0-.4.3-.8.8-.8h8.1c.4 0 .8.3.8.8-.1.4-.4.8-.8.8zM114.3 95.7h-4c-.4 0-.8-.3-.8-.8 0-.4.3-.8.8-.8h4c.4 0 .8.3.8.8-.1.5-.4.8-.8.8zM118.5 92.8h-3.8c-.4 0-.8-.3-.8-.8 0-.4.3-.8.8-.8h3.8c.4 0 .8.3.8.8 0 .4-.4.8-.8.8zM107.4 95.7h-.8c-.4 0-.8-.3-.8-.8 0-.4.3-.8.8-.8h.8c.4 0 .8.3.8.8s-.4.8-.8.8zM22.4 116.5h-8.1c-.4 0-.8-.3-.8-.8 0-.4.3-.8.8-.8h8.1c.4 0 .8.3.8.8s-.4.8-.8.8zM25.6 119.5h-4c-.4 0-.8-.3-.8-.8 0-.4.3-.8.8-.8h4c.4 0 .8.3.8.8-.1.4-.4.8-.8.8zM29.9 116.5h-3.8c-.4 0-.8-.3-.8-.8 0-.4.3-.8.8-.8h3.8c.4 0 .8.3.8.8-.1.5-.4.8-.8.8zM18.7 119.5H18c-.4 0-.8-.3-.8-.8 0-.4.3-.8.8-.8h.8c.4 0 .8.3.8.8-.1.4-.4.8-.9.8z"/><circle class="st3" cx="114.7" cy="4.8" r="2.8"/><circle class="st5" cx="6.6" cy="7.6" r="2.8"/><circle class="st2" cx="22.1" cy="93.5" r="2.8"/><circle class="st5" cx="78.1" cy="119.9" r="2.8"/></svg>