<svg version="1.1" id="Layer_1" xmlns="http://www.w3.org/2000/svg" x="0" y="0" viewBox="0 0 129.5 117.6" xml:space="preserve"><style>.st2{fill:#7f8f9}.st4{fill:#231f20}.st5{fill:#fff}</style><path d="M109.2 57V40.5H69.9v72h55.8V57zM43.1 20.3V3.7H3.7v72.1h55.9V20.3z" fill="#e6e9ee"/><circle cx="79.3" cy="3.7" r="2.7" fill="#ff7058"/><circle class="st2" cx="49.2" cy="115.2" r="2.4"/><circle cx="9.1" cy="107.9" r="2.4" fill="#84dbff"/><circle class="st2" cx="117.8" cy="14.6" r="2.7"/><path class="st4" d="M91.6 23c-.2 0-.4-.1-.5-.2-.3-.3-.3-.8 0-1.1l1.3-1.3c.3-.3.8-.3 1.1 0 .3.3.3.8 0 1.1l-1.3 1.3c-.2.2-.4.2-.6.2zm-4 4.1c-.2 0-.4-.1-.5-.2-.3-.3-.3-.8 0-1.1l1.3-1.3c.3-.3.8-.3 1.1 0 .3.3.3.8 0 1.1l-1.3 1.3c-.2.1-.4.2-.6.2zm5.3 0c-.2 0-.4-.1-.5-.2l-1.3-1.3c-.3-.3-.3-.8 0-1.1.3-.3.8-.3 1.1 0l1.3 1.3c.3.3.3.8 0 1.1-.2.1-.4.2-.6.2zm-4-4.1c-.2 0-.4-.1-.5-.2l-1.3-1.3c-.3-.3-.3-.8 0-1.1.3-.3.8-.3 1.1 0l1.3 1.3c.3.3.3.8 0 1.1-.2.2-.4.2-.6.2zM54.3 69.3c-.2 0-.4-.1-.5-.2-.3-.3-.3-.8 0-1.1l1.7-1.7h-2c-4.5 0-8.2-3.7-8.2-8.2 0-4.5 3.7-8.2 8.2-8.2h15.3c.4 0 .8.3.8.8 0 .4-.3.8-.8.8H53.5a6.7 6.7 0 000 13.4h3.8c.3 0 .6.2.7.5.1.3.1.6-.2.8l-3 3c-.1.1-.3.1-.5.1zM76 66.4H61.5c-.4 0-.8-.3-.8-.8 0-.4.3-.8.8-.8H76a6.7 6.7 0 000-13.4h-3.8c-.3 0-.6-.2-.7-.5-.1-.3-.1-.6.2-.8l3-3c.3-.3.8-.3 1.1 0 .3.3.3.8 0 1.1L74 49.9h2c4.5 0 8.2 3.7 8.2 8.2.1 4.6-3.6 8.3-8.2 8.3zM15.6 37.7c-1.6 0-2.9-1.3-2.9-2.9v-2.7c0-1.6 1.3-2.9 2.9-2.9 1.6 0 2.9 1.3 2.9 2.9v2.7c0 1.6-1.3 2.9-2.9 2.9zm0-7c-.8 0-1.4.6-1.4 1.4v2.7c0 .8.6 1.4 1.4 1.4.8 0 1.4-.6 1.4-1.4v-2.7c0-.8-.6-1.4-1.4-1.4zm5.9 7c-.4 0-.8-.3-.8-.8v-5.2c-.3.3-.8.3-1.1 0-.3-.3-.3-.8 0-1.1l1.3-1.3c.2-.2.5-.3.8-.2.3.1.5.4.5.7v7c0 .6-.3.9-.7.9zm4.8 0c-1.6 0-2.9-1.3-2.9-2.9v-2.7c0-1.6 1.3-2.9 2.9-2.9 1.6 0 2.9 1.3 2.9 2.9v2.7c0 1.6-1.3 2.9-2.9 2.9zm0-7c-.8 0-1.4.6-1.4 1.4v2.7c0 .8.6 1.4 1.4 1.4.8 0 1.4-.6 1.4-1.4v-2.7c0-.8-.7-1.4-1.4-1.4zm5.9 7c-.4 0-.7-.3-.7-.8v-5.2c-.3.3-.8.3-1.1 0-.3-.3-.3-.8 0-1.1l1.3-1.3c.2-.2.5-.3.8-.2.3.1.5.4.5.7v7c-.1.6-.4.9-.8.9zm4.8 0c-1.6 0-2.9-1.3-2.9-2.9v-2.7c0-1.6 1.3-2.9 2.9-2.9 1.6 0 2.9 1.3 2.9 2.9v2.7c0 1.6-1.3 2.9-2.9 2.9zm0-7c-.8 0-1.4.6-1.4 1.4v2.7c0 .8.6 1.4 1.4 1.4.8 0 1.4-.6 1.4-1.4v-2.7c0-.8-.7-1.4-1.4-1.4zm5.9 7c-.4 0-.8-.3-.8-.8v-5.2c-.3.3-.8.3-1.1 0-.3-.3-.3-.8 0-1.1l1.3-1.3c.2-.2.5-.3.8-.2.3.1.5.4.5.7v7c0 .6-.3.9-.7.9zM30.1 49.4c-1.6 0-2.9-1.3-2.9-2.9v-2.7c0-1.6 1.3-2.9 2.9-2.9 1.6 0 2.9 1.3 2.9 2.9v2.7c0 1.6-1.3 2.9-2.9 2.9zm0-7.1c-.8 0-1.4.6-1.4 1.4v2.7c0 .8.6 1.4 1.4 1.4.8 0 1.4-.6 1.4-1.4v-2.7c0-.7-.7-1.4-1.4-1.4zm-15.4 7.1c-.4 0-.8-.3-.8-.8v-5.2c-.3.3-.8.3-1.1 0-.3-.3-.3-.8 0-1.1l1.3-1.3c.2-.2.5-.3.8-.2.3.1.5.4.5.7v7c.1.5-.2.9-.7.9zm4.7 0c-1.6 0-2.9-1.3-2.9-2.9v-2.7c0-1.6 1.3-2.9 2.9-2.9 1.6 0 2.9 1.3 2.9 2.9v2.7c0 1.6-1.3 2.9-2.9 2.9zm0-7.1c-.8 0-1.4.6-1.4 1.4v2.7c0 .8.6 1.4 1.4 1.4.8 0 1.4-.6 1.4-1.4v-2.7c0-.7-.6-1.4-1.4-1.4zm6 7.1c-.4 0-.8-.3-.8-.8v-5.2c-.3.3-.8.3-1.1 0-.3-.3-.3-.8 0-1.1l1.3-1.3c.2-.2.5-.3.8-.2.3.1.5.4.5.7v7c0 .5-.3.9-.7.9zm15.3 0c-1.6 0-2.9-1.3-2.9-2.9v-2.7c0-1.6 1.3-2.9 2.9-2.9 1.6 0 2.9 1.3 2.9 2.9v2.7c0 1.6-1.3 2.9-2.9 2.9zm0-7.1c-.8 0-1.4.6-1.4 1.4v2.7c0 .8.6 1.4 1.4 1.4s1.4-.6 1.4-1.4v-2.7c0-.7-.6-1.4-1.4-1.4zM36 49.4c-.4 0-.8-.3-.8-.8v-5.2c-.3.3-.8.3-1.1 0-.3-.3-.3-.8 0-1.1l1.3-1.3c.2-.2.5-.3.8-.2.3.1.5.4.5.7v7c.1.5-.2.9-.7.9zm49.3 44.9c-1.6 0-2.9-1.3-2.9-2.9v-2.7c0-1.6 1.3-2.9 2.9-2.9 1.6 0 2.9 1.3 2.9 2.9v2.7c0 1.6-1.3 2.9-2.9 2.9zm0-7c-.8 0-1.4.6-1.4 1.4v2.7c0 .8.6 1.4 1.4 1.4s1.4-.6 1.4-1.4v-2.7c0-.8-.7-1.4-1.4-1.4zm5.9 7c-.4 0-.8-.3-.8-.8v-5.2c-.3.3-.8.3-1.1 0-.3-.3-.3-.8 0-1.1l1.3-1.3c.2-.2.5-.3.8-.2.3.1.5.4.5.7v7c0 .6-.3.9-.7.9zm4.8 0c-1.6 0-2.9-1.3-2.9-2.9v-2.7c0-1.6 1.3-2.9 2.9-2.9 1.6 0 2.9 1.3 2.9 2.9v2.7c0 1.6-1.3 2.9-2.9 2.9zm0-7c-.8 0-1.4.6-1.4 1.4v2.7c0 .8.6 1.4 1.4 1.4s1.4-.6 1.4-1.4v-2.7c0-.8-.7-1.4-1.4-1.4zm5.9 7c-.4 0-.8-.3-.8-.8v-5.2c-.3.3-.8.3-1.1 0-.3-.3-.3-.8 0-1.1l1.3-1.3c.2-.2.5-.3.8-.2.3.1.5.4.5.7v7c0 .6-.3.9-.7.9zm4.7 0c-1.6 0-2.9-1.3-2.9-2.9v-2.7c0-1.6 1.3-2.9 2.9-2.9 1.6 0 2.9 1.3 2.9 2.9v2.7c0 1.6-1.3 2.9-2.9 2.9zm0-7c-.8 0-1.4.6-1.4 1.4v2.7c0 .8.6 1.4 1.4 1.4.8 0 1.4-.6 1.4-1.4v-2.7c0-.8-.6-1.4-1.4-1.4zm5.9 7c-.4 0-.8-.3-.8-.8v-5.2c-.3.3-.8.3-1.1 0-.3-.3-.3-.8 0-1.1L112 86c.2-.2.5-.3.8-.2.3.1.5.4.5.7v7c0 .5-.3.8-.8.8zm-12.7 11.6c-1.6 0-2.9-1.3-2.9-2.9v-2.7c0-1.6 1.3-2.9 2.9-2.9 1.6 0 2.9 1.3 2.9 2.9v2.7c0 1.6-1.3 2.9-2.9 2.9zm0-7c-.8 0-1.4.6-1.4 1.4v2.7c0 .8.6 1.4 1.4 1.4s1.4-.6 1.4-1.4v-2.7c0-.8-.7-1.4-1.4-1.4zm-15.4 7c-.4 0-.8-.3-.8-.8v-5.2c-.3.3-.8.3-1.1 0-.3-.3-.3-.8 0-1.1l1.3-1.3c.2-.2.5-.3.8-.2.3.1.5.4.5.7v7c.1.6-.2.9-.7.9zm4.7 0c-1.6 0-2.9-1.3-2.9-2.9v-2.7c0-1.6 1.3-2.9 2.9-2.9 1.6 0 2.9 1.3 2.9 2.9v2.7c0 1.6-1.3 2.9-2.9 2.9zm0-7c-.8 0-1.4.6-1.4 1.4v2.7c0 .8.6 1.4 1.4 1.4s1.4-.6 1.4-1.4v-2.7c0-.8-.6-1.4-1.4-1.4zm6 7c-.4 0-.8-.3-.8-.8v-5.2c-.3.3-.8.3-1.1 0-.3-.3-.3-.8 0-1.1l1.3-1.3c.2-.2.5-.3.8-.2.3.1.5.4.5.7v7c0 .6-.3.9-.7.9zm15.3 0c-1.6 0-2.9-1.3-2.9-2.9v-2.7c0-1.6 1.3-2.9 2.9-2.9 1.6 0 2.9 1.3 2.9 2.9v2.7c0 1.6-1.3 2.9-2.9 2.9zm0-7c-.8 0-1.4.6-1.4 1.4v2.7c0 .8.6 1.4 1.4 1.4s1.4-.6 1.4-1.4v-2.7c0-.8-.6-1.4-1.4-1.4zm-4.7 7c-.4 0-.8-.3-.8-.8v-5.2c-.3.3-.8.3-1.1 0-.3-.3-.3-.8 0-1.1l1.3-1.3c.2-.2.5-.3.8-.2.3.1.5.4.5.7v7c.1.6-.3.9-.7.9z"/><path class="st4" d="M129.3 53.5L112.8 37c-.1-.1-.3-.2-.5-.2H66.9c-.4 0-.8.3-.8.8v7.1c0 .4.3.8.8.8.4 0 .8-.3.8-.8v-6.3h43.8V54c0 .4.3.8.8.8H128v60H67.7V93.5h3.2c.3 0 .5-.1.6-.4.1-.2.1-.5 0-.7l-3.9-7.3c-.3-.5-1.1-.5-1.3 0l-3.9 7.3c-.1.2-.1.5 0 .7.1.2.4.4.6.4h3.2v22.1c0 .4.3.8.8.8h61.8c.4 0 .8-.3.8-.8V54c-.1-.2-.2-.4-.3-.5zM64.3 92l2.7-4.9 2.7 4.9h-5.4zM113 53.2V39.3l13.9 13.9H113z"/><path class="st5" d="M38 72.1l-4.1-1.8-.1.2c-.9 1.6-2.6 2.4-4.4 2.3h-1.1c-1.8 0-3.5-.9-4.3-2.6l-.1-.2-4.2 1.6.1.3c.5 1.7-.1 3.6-1.5 4.8-.3.2-.5.5-.8.7-1.3 1.3-3.1 1.8-4.8 1.2l-.3-.1-1.8 4.1.2.1c1.6.9 2.4 2.6 2.3 4.4v1.1c0 1.8-.9 3.5-2.6 4.3l-.3.1 1.6 4.2.3-.1c1.7-.5 3.6.1 4.8 1.5.2.3.5.5.7.8 1.3 1.3 1.8 3.1 1.2 4.8l-.1.3 4.1 1.8.1-.2c.9-1.6 2.6-2.4 4.4-2.3h1.1c1.8 0 3.5.9 4.3 2.6l.1.3 4.2-1.6-.1-.3c-.5-1.7.1-3.6 1.5-4.8.3-.2.5-.5.8-.7 1.3-1.3 3.1-1.8 4.8-1.2l.3.1 1.8-4.1-.2-.1c-1.6-.9-2.4-2.6-2.3-4.4v-1.1c0-1.8.9-3.5 2.6-4.3l.3-.1-1.6-4.2-.3.1c-1.7.5-3.6-.1-4.8-1.5-.2-.3-.5-.5-.7-.8-1.3-1.3-1.8-3.1-1.2-4.8l.1-.4z"/><path class="st4" d="M58.6 24.2c-.3 0-.5.1-.6.4-.1.2-.1.5 0 .7l3.9 7.3c.1.2.4.4.7.4.3 0 .5-.2.7-.4l3.9-7.3c.1-.2.1-.5 0-.7-.1-.2-.4-.4-.6-.4h-3.1v-6.9c0-.2-.1-.4-.2-.5L46.6.2c-.1-.1-.3-.2-.5-.2H.8C.3 0 0 .3 0 .8v78c0 .4.3.8.8.8h10.4L10 82.3c-.2.4 0 .8.3 1l.2.1c1.3.7 2 2.2 1.9 3.7v1.1c0 1.6-.8 3-2.1 3.6l-.3.1c-.3.2-.5.6-.4.9l1.6 4.2c.1.4.5.6.9.5l.3-.1c1.4-.4 3 .1 4 1.3.2.3.5.5.8.8 1.1 1.1 1.5 2.7 1 4.1l-.1.3c-.1.4 0 .8.4.9l4.1 1.8c.4.2.8 0 1-.3l.1-.2c.7-1.3 2.1-2 3.7-1.9h1.1c1.6 0 2.9.8 3.6 2.1l.1.3c.1.3.4.4.7.4h.3l4.2-1.6c.4-.1.6-.5.5-.9l-.1-.3c-.4-1.4.1-3 1.3-4 .3-.2.5-.5.8-.8 1.1-1.1 2.7-1.5 4.1-1l.3.1c.4.1.8 0 .9-.4L47 94c.2-.4 0-.8-.3-1l-.2-.1c-1.3-.7-2-2.2-1.9-3.7v-1.1c0-1.6.8-3 2.1-3.6l.3-.1c.3-.2.5-.6.4-.9l-1.5-3.8h16.8c.4 0 .8-.3.8-.8v-6c0-.4-.3-.8-.8-.8-.4 0-.8.3-.8.8V78H41c-.2-.2-.4-.3-.6-.5-.2-.3-.5-.5-.8-.8-1.1-1.1-1.5-2.7-1-4.1l.1-.3c.1-.4 0-.8-.4-.9l-4.1-1.8c-.4-.2-.8 0-1 .3l-.1.2c-.7 1.3-2.1 2-3.7 1.9h-1.1c-1.6 0-2.9-.8-3.6-2.1l-.1-.3c-.2-.3-.6-.5-.9-.4l-4.2 1.6c-.4.1-.6.5-.5.9l.1.3c.4 1.4-.1 3-1.3 4-.3.2-.5.5-.8.8-1.1 1.1-2.7 1.5-4.1 1l-.3-.1c-.3-.1-.6 0-.8.3H1.5V1.5h43.8v15.8c0 .4.3.8.8.8h15.8v6.2h-3.3zM12.8 79.4c1.8.5 3.9-.1 5.2-1.5l.7-.7c1.5-1.3 2.2-3.3 1.8-5.1l2.9-1.1c1 1.6 2.7 2.6 4.7 2.6v-.8l.1.8h.9c2 .1 3.9-.8 4.9-2.3l2.9 1.3c-.5 1.8.1 3.8 1.5 5.2l.7.7c1.3 1.5 3.3 2.2 5.1 1.8l1.1 2.9c-1.6 1-2.6 2.8-2.6 4.8v1c-.1 2 .8 3.8 2.3 4.9l-1.3 2.9c-1.8-.5-3.9.1-5.2 1.5l-.7.7c-1.5 1.3-2.2 3.3-1.8 5.1l-2.9 1.1c-1-1.6-2.7-2.6-4.7-2.6h-1c-2-.1-3.9.8-4.9 2.3l-2.9-1.3c.5-1.8-.1-3.8-1.5-5.2l-.7-.7c-1.3-1.5-3.3-2.2-5.1-1.8L11.2 93c1.6-1 2.6-2.8 2.6-4.8v-1c.1-2-.8-3.8-2.3-4.9l1.3-2.9zm34-62.9V2.6l13.9 13.9H46.8zm18.3 9.2l-2.7 4.9-2.7-4.9h5.4z"/><path class="st4" d="M29 100.4l-.1-1.5c.3 0 .6 0 .9-.1l.2 1.5c-.3.1-.7.1-1 .1zm-2.2 0c-.4 0-.7-.1-1-.2l.3-1.5c.3.1.6.1.9.2l-.2 1.5zm5.3-.5l-.5-1.4.9-.3.6 1.4c-.3 0-.7.2-1 .3zm-8.3-.4c-.1-.1-.3-.1-.4-.2-.2-.1-.4-.2-.5-.3l.7-1.3c.2.1.3.2.5.2.1.1.3.1.4.2l-.7 1.4zm11.2-1l-.8-1.3c.3-.2.5-.3.8-.5l.9 1.2-.9.6zM21 98c-.3-.2-.6-.4-.8-.7l1-1.1c.2.2.5.4.7.6L21 98zm16.4-1.5l-1.1-1c.2-.2.4-.5.6-.7l1.2.9c-.2.3-.4.5-.7.8zm-18.7-.7l-.6-.9 1.3-.8c.2.3.4.5.5.8l-1.2.9zm20.6-1.9l-1.3-.7c.1-.2.2-.4.3-.7l.1-.2 1.4.6-.1.2c-.2.3-.3.6-.4.8zM17.1 93c-.1-.3-.3-.7-.4-1l1.4-.5.3.9-1.3.6zm23.3-2.1l-1.5-.3c.1-.3.1-.6.2-.9l1.5.2c0 .3-.1.7-.2 1zM16.2 90c-.1-.4-.1-.7-.1-1.1l1.5-.1c0 .3.1.6.1.9l-1.5.3zm23-2.2c0-.3 0-.6-.1-.9l1.5-.2c0 .4.1.7.1 1.1h-1.5zM17.6 87l-1.5-.2c0-.4.1-.7.2-1.1l1.5.3c-.1.3-.2.6-.2 1zm21.2-2l-.3-.9 1.4-.5c.1.3.2.7.3 1l-1.4.4zm-20.6-.8l-1.4-.5c.1-.2.2-.4.3-.7 0-.1.1-.2.2-.3l1.3.7-.1.3c-.1.2-.2.3-.3.5zm19.5-1.7c-.2-.3-.3-.5-.5-.8l1.2-.9.6.9-1.3.8zm-18.1-.7l-1.2-.9c.2-.3.4-.6.7-.8l1.1 1c-.3.2-.4.4-.6.7zm16.3-1.5c-.2-.2-.5-.4-.7-.6l.9-1.2c.3.2.5.5.8.7l-1 1.1zm-14.4-.6l-1-1.2.9-.6.8 1.2c-.2.2-.5.4-.7.6zm12.2-1.1c-.3-.1-.5-.3-.8-.4-.3-.1-.5-.2-.8-.3l.5-1.4c.3.1.6.2.9.4.3.1.6.3.9.5l-.7 1.2zm-9.8-.4l-.6-1.4c.3-.1.7-.3 1-.4l.5 1.4c-.4.2-.7.3-.9.4zm6.3-.8c-.3-.1-.6-.1-.9-.1l.1-1.5c.4 0 .7.1 1.1.1l-.3 1.5zm-3.7 0l-.3-1.5c.3-.1.7-.1 1.1-.1l.1 1.5c-.3 0-.6.1-.9.1z"/><circle transform="rotate(-65.832 28.384 88.104)" class="st2" cx="28.4" cy="88.1" r="9.2"/><circle transform="rotate(-65.832 28.383 88.104)" class="st5" cx="28.4" cy="88.1" r="4.6"/><path class="st4" d="M28.4 93.5c-.8 0-1.5-.2-2.2-.5-1.3-.6-2.3-1.6-2.8-3-.5-1.3-.5-2.8.1-4.1.9-1.9 2.8-3.2 4.9-3.2.8 0 1.5.2 2.2.5 1.3.6 2.3 1.6 2.8 3 .5 1.3.5 2.8-.1 4.1-.9 1.9-2.8 3.2-4.9 3.2zm0-9.3c-1.5 0-2.9.9-3.5 2.3-.4.9-.5 2-.1 2.9.4 1 1.1 1.7 2 2.1.5.2 1 .3 1.6.3 1.5 0 2.9-.9 3.5-2.3.4-.9.5-2 .1-2.9-.4-1-1.1-1.7-2-2.1-.5-.1-1.1-.3-1.6-.3zm55.1-17.4h29v1.5h-29zm0 3.6h29v1.5h-29zm0 3.5h29v1.5h-29zm0 3.5h20.6v1.5H83.5zM9.4 21.5h26.8V23H9.4zM9.4 18h26.8v1.5H9.4zM9.4 14.5h26.8V16H9.4zM9.4 11h19v1.5h-19z"/></svg>