<svg version="1.1" id="Layer_1" xmlns="http://www.w3.org/2000/svg" x="0" y="0" viewBox="0 0 123.7 129.5" xml:space="preserve"><style>.st1{fill:#fff}.st2{fill:#231f20}.st3{fill:#84dbff}.st4{fill:#e6e9ee}</style><path d="M103.8 128.7v-6.6c0-21.6-17.5-39.1-39.1-39.1s-39.1 17.5-39.1 39.1v6.6h78.2z" fill="#7f8f9"/><path class="st1" d="M75 78.7v4.1c0 2.8-1.2 5.4-3 7.3-1.9 1.9-4.4 3-7.3 3-5.7 0-10.3-4.6-10.3-10.3v-4.1H75zm-4.2 37.1l-6 6.3-6-6.3h-.1l3.7-15-1.1-3.5h6.9l-1.1 3.5z"/><path class="st2" d="M64.8 122.9c-.2 0-.4-.1-.5-.2l-6-6.2-.1-.1c-.1-.2-.2-.4-.1-.6l3.6-14.8-1-3.4c-.1-.2 0-.5.1-.7.1-.2.4-.3.6-.3h6.8c.2 0 .5.1.6.3.1.2.2.4.1.7l-1 3.4 3.6 14.8c.1.2 0 .5-.2.7l-6 6.3c-.1 0-.3.1-.5.1zm-5.2-7.3l5.2 5.4 5.2-5.4-3.6-14.6v-.4l.8-2.6h-4.8l.8 2.6v.4l-3.6 14.6z"/><path class="st3" d="M105.6 66.6V25.4c0-.6-.5-1.1-1.1-1.1H25c-.6 0-1.1.5-1.1 1.1v41.1h81.7z"/><path class="st4" d="M72.8 22.3c-.7-3.8-4.1-6.6-8.1-6.6s-7.3 2.9-8.1 6.6h16.2z"/><path class="st2" d="M121.7 5.5c-.2 0-.4-.1-.5-.2-.3-.3-.3-.8 0-1.1l1.3-1.3c.3-.3.8-.3 1.1 0 .3.3.3.8 0 1.1l-1.3 1.3c-.2.2-.4.2-.6.2zm-4 4.1c-.2 0-.4-.1-.5-.2-.3-.3-.3-.8 0-1.1l1.3-1.3c.3-.3.8-.3 1.1 0 .3.3.3.8 0 1.1l-1.3 1.3c-.3.1-.5.2-.6.2zm5.3 0c-.2 0-.4-.1-.5-.2l-1.3-1.3c-.3-.3-.3-.8 0-1.1.3-.3.8-.3 1.1 0l1.3 1.3c.3.3.3.8 0 1.1-.2.1-.4.2-.6.2zm-4.1-4.1c-.2 0-.4-.1-.5-.2L117.1 4c-.3-.3-.3-.8 0-1.1.3-.3.8-.3 1.1 0l1.3 1.3c.3.3.3.8 0 1.1-.2.2-.4.2-.6.2zM4.8 42c-.2 0-.4-.1-.5-.2-.3-.3-.3-.8-.1-1.1l1.3-1.3c.3-.3.8-.3 1.1 0 .3.3.3.8 0 1.1l-1.3 1.3c-.1.1-.3.2-.5.2zm-4 4c-.2 0-.4-.1-.5-.2-.3-.3-.3-.8 0-1.1l1.3-1.3c.3-.3.8-.3 1.1 0 .3.3.3.8 0 1.1l-1.3 1.3c-.3.1-.5.2-.6.2zm5.3 0c-.2 0-.4-.1-.5-.2l-1.3-1.3c-.3-.3-.3-.8 0-1.1.3-.3.8-.3 1.1 0l1.3 1.3c.3.3.3.8 0 1.1-.3.1-.4.2-.6.2zM2 42c-.2 0-.4-.1-.5-.2L.2 40.5c-.3-.3-.3-.8 0-1.1.3-.3.8-.3 1.1 0l1.3 1.3c.3.3.3.8 0 1.1-.2.1-.4.2-.6.2zm112.6 50.5c-.2 0-.4-.1-.5-.2-.3-.3-.3-.8 0-1.1l1.3-1.3c.3-.3.8-.3 1.1 0 .3.3.3.8 0 1.1l-1.3 1.3c-.2.1-.4.2-.6.2zm-4 4c-.2 0-.4-.1-.5-.2-.3-.3-.3-.8 0-1.1l1.3-1.3c.3-.3.8-.3 1.1 0 .3.3.3.8 0 1.1l-1.3 1.3c-.2.1-.4.2-.6.2zm5.3 0c-.2 0-.4-.1-.5-.2l-1.3-1.3c-.3-.3-.3-.8 0-1.1.3-.3.8-.3 1.1 0l1.3 1.3c.3.3.3.8 0 1.1-.2.1-.4.2-.6.2zm-4-4c-.2 0-.4-.1-.5-.2l-1.3-1.3c-.3-.3-.3-.8 0-1.1.3-.3.8-.3 1.1 0l1.3 1.3c.3.3.3.8 0 1.1-.2.1-.4.2-.6.2z"/><path class="st1" d="M93.4 30.7h-5.8c-.4 0-.8-.3-.8-.8 0-.4.3-.8.8-.8h5.8c.4 0 .8.3.8.8-.1.5-.4.8-.8.8zm2.3 2.9h-2.8c-.4 0-.8-.3-.8-.8 0-.4.3-.8.8-.8h2.8c.4 0 .8.3.8.8-.1.5-.4.8-.8.8zm3-2.9H96c-.4 0-.8-.3-.8-.8 0-.4.3-.8.8-.8h2.7c.4 0 .8.3.8.8s-.4.8-.8.8zm-7.9 2.9h-.6c-.4 0-.8-.3-.8-.8 0-.4.3-.8.8-.8h.6c.4 0 .8.3.8.8-.1.5-.4.8-.8.8zM34.1 58.8h-5.8c-.4 0-.8-.3-.8-.8s.3-.8.8-.8h5.8c.4 0 .8.3.8.8s-.4.8-.8.8zm2.2 2.9h-2.8c-.4 0-.8-.3-.8-.8 0-.4.3-.8.8-.8h2.8c.4 0 .8.3.8.8s-.4.8-.8.8zm3.1-2.9h-2.7c-.4 0-.8-.3-.8-.8s.3-.8.8-.8h2.7c.4 0 .8.3.8.8s-.4.8-.8.8zm-8 2.9h-.6c-.4 0-.8-.3-.8-.8 0-.4.3-.8.8-.8h.6c.4 0 .8.3.8.8s-.4.8-.8.8z"/><path class="st2" d="M104.5 21.6H73.4c-.4-1.6-1.2-3-2.4-4.1L87.2 1.3c.3-.3.3-.8 0-1.1-.3-.3-.8-.3-1.1 0L69.8 16.5c-1.5-1-3.2-1.6-5.1-1.6-1.9 0-3.7.6-5.2 1.7L43.2.2c-.3-.3-.8-.3-1.1 0-.3.3-.3.8 0 1.1l16.3 16.3c-1.1 1.1-1.9 2.5-2.3 4H25c-2.1 0-3.8 1.7-3.8 3.8v50.2c0 2.1 1.7 3.8 3.8 3.8h28.7v3.3c0 .4 0 .7.1 1.1-16.7 4.8-28.9 20.1-28.9 38.3v7.3h79.7v-7.3c0-18.2-12.2-33.5-28.9-38.3 0-.4.1-.7.1-1.1v-3.3h28.7c2.1 0 3.8-1.7 3.8-3.8V25.4c0-2.1-1.7-3.8-3.8-3.8zm-39.7-5.1c3.2 0 6.1 2.1 7.1 5.1H57.7c1-3 3.8-5.1 7.1-5.1zm38.3 105.7v5.8H87.6v-12.5h-1.5V128H43.4v-12.5h-1.5V128H26.4v-5.8c0-17.4 11.7-32.2 27.6-36.8 1.2 4.9 5.5 8.5 10.7 8.5 2.9 0 5.7-1.1 7.8-3.2 1.5-1.5 2.5-3.3 2.9-5.2 16 4.5 27.7 19.2 27.7 36.7zM55.2 82.8v-3.3h19v3.3c0 2.5-1 4.9-2.8 6.7-1.8 1.8-4.2 2.8-6.7 2.8-5.2 0-9.5-4.2-9.5-9.5zm51.6-7.2c0 1.3-1.1 2.3-2.3 2.3H25c-1.3 0-2.3-1.1-2.3-2.3v-6.3h84.2v6.3zm0-7.7H22.7V25.4c0-1.3 1.1-2.3 2.3-2.3h79.5c1.3 0 2.3 1.1 2.3 2.3v42.5z"/><path class="st2" d="M55.1 72.6h2.1v1.5h-2.1zm4.3 0h2.1v1.5h-2.1zm4.3 0h2.1v1.5h-2.1zm4.3 0h2.1v1.5H68zm4.4 0h2.1v1.5h-2.1z"/><path class="st1" d="M85.6 47.1c-.1-1.1-1.1-2-2.3-2h-1.6c1.3 0 2.3-1.1 2.2-2.4-.1-1.1-1.1-2-2.3-2H73c-.5 0-.9-.5-.7-1l.6-1.6c.6-1.4 1.2-3.5.1-6.5-.5-1.5-1.9-2.5-3.5-2.5h-1.1V34c0 .7-.2 1.4-.6 2l-2.9 4.8c-.7 1.1-1.8 1.7-3 1.8l-2.7.2v15l7.4.3h13.8c1.1 0 2.1-.8 2.3-2 .1-1.3-.9-2.4-2.2-2.4h.8c1.1 0 2.1-.8 2.3-2 .1-1.3-.9-2.4-2.2-2.4h1.9c1.4.2 2.4-.9 2.3-2.2z"/><path class="st1" d="M55.6 39.7h3.8v20.1h-3.8z"/><path class="st4" d="M43.9 37.2h11.7v24.5H43.9"/><path class="st2" d="M86.3 47c-.1-1.2-1-2.2-2.1-2.5.3-.5.5-1.2.4-1.8-.1-1.5-1.5-2.6-3-2.6L73 40l.6-1.6c.7-1.7 1.2-3.9.2-7-.6-1.8-2.3-3.1-4.2-3.1h-1.1c-.4 0-.8.3-.8.8V34c0 .6-.2 1.1-.5 1.6l-2.9 4.8c-.5.9-1.4 1.4-2.4 1.5l-1.8.1v-2.3c0-.4-.3-.8-.8-.8h-3v-1.7c0-.4-.3-.8-.8-.8H43.9V38h10.9v23H43.9v1.5h11.7c.4 0 .8-.3.8-.8v-1.1h3c.4 0 .8-.3.8-.8v-1.2l6.6.3h13.8c1.5 0 2.9-1.2 3-2.6.1-.7-.1-1.5-.6-2.1.8-.5 1.4-1.3 1.5-2.3.1-.6-.1-1.2-.4-1.8.6-.1 1.1-.4 1.5-.9.5-.6.8-1.4.7-2.2zM58.6 59.1h-2.3V40.4h2.3v18.7zm25.9-10.9c-.3.3-.7.5-1 .5H79c-.4 0-.8.3-.8.8 0 .4.3.8.8.8h2.7c.4 0 .8.2 1 .5.3.3.4.7.4 1.1-.1.7-.7 1.3-1.5 1.3H79c-.4 0-.8.3-.8.8 0 .4.3.8.8.8h1.7c.4 0 .8.2 1 .5.3.3.4.7.4 1.1-.1.7-.7 1.3-1.5 1.3H66.8l-6.7-.3V43.5l2-.1c1.5-.1 2.8-.9 3.6-2.2l2.9-4.8c.4-.7.7-1.6.7-2.4v-4h.3c1.3 0 2.4.8 2.8 2 .9 2.6.5 4.4-.1 5.9l-.6 1.6c-.2.5-.1 1 .2 1.4.3.4.7.7 1.2.7h8.6c.8 0 1.4.6 1.5 1.3 0 .4-.1.8-.4 1.1-.3.3-.7.5-1 .5H80c-.4 0-.8.3-.8.8s.3.8.8.8h3.3c.8 0 1.4.6 1.5 1.3.1.2 0 .5-.3.8z"/><path class="st2" d="M77.3 44.4h-.7c-.4 0-.8.3-.8.8s.3.8.8.8h.7c.4 0 .8-.3.8-.8s-.3-.8-.8-.8zm-.9 4.3h-.7c-.4 0-.8.3-.8.8 0 .4.3.8.8.8h.7c.4 0 .8-.3.8-.8s-.4-.8-.8-.8zm0 4.3h-.7c-.4 0-.8.3-.8.8 0 .4.3.8.8.8h.7c.4 0 .8-.3.8-.8 0-.4-.4-.8-.8-.8z"/><circle class="st1" cx="49.4" cy="57.2" r="1.8"/><path class="st2" d="M49.4 59.7c-1.4 0-2.6-1.2-2.6-2.6 0-1.4 1.2-2.6 2.6-2.6 1.4 0 2.6 1.2 2.6 2.6 0 1.5-1.2 2.6-2.6 2.6zm0-3.6c-.6 0-1.1.5-1.1 1.1 0 .6.5 1.1 1.1 1.1.6 0 1.1-.5 1.1-1.1 0-.6-.5-1.1-1.1-1.1zM14.6 10c-1.6 0-3-1.3-3-3 0-1.6 1.3-3 3-3 1.6 0 3 1.3 3 3-.1 1.6-1.4 3-3 3zm0-4.5c-.8 0-1.5.7-1.5 1.5s.7 1.5 1.5 1.5S16 7.8 16 7s-.6-1.5-1.4-1.5z"/><circle cx="120.1" cy="27.5" r="2.4" fill="#ffd05b"/><g><circle cx="38" cy="10.6" r="1.5" fill="#ff7058"/></g><g><circle class="st3" cx="7.2" cy="86.9" r="2.4"/></g></svg>