<?xml version="1.0" encoding="utf-8"?>
<!-- Generator: Adobe Illustrator 21.1.0, SVG Export Plug-In . SVG Version: 6.00 Build 0)  -->
<svg version="1.1" id="Layer_1" xmlns="http://www.w3.org/2000/svg" xmlns:xlink="http://www.w3.org/1999/xlink" x="0px" y="0px"
	 viewBox="0 0 353.4 353.4" style="enable-background:new 0 0 353.4 353.4;" xml:space="preserve">
<style type="text/css">
	.st0{fill:#FFFFFF;}
</style>
<g>
	<path class="st0" d="M342.5,0h-0.3c-32.9,0-68.7,10.5-106.3,31.1c-29.5,16.1-60.5,38.6-92.1,66.9c-4.7,4.2-9.7,8.8-15.2,14
		c-15-2.3-57.4-2.6-124,44.4c-3.5,2.5-5.2,6.8-4.4,11l0.1,0.3c1,4.3,4.4,7.6,8.6,8.3c19.9,4,36.4,11.5,45.7,16.5
		c-0.6,0.7-1,1.3-1.3,1.7l-0.4,0.5c-1.9,2.5-2.6,5.6-2,8.7h0c0.2,0.9,1.5,7.3,5.3,16.6C42.7,234.2,34,253.7,30.3,278
		c-2.6,17.1-1.8,31.1-1.3,36.4l0,0.3c0.6,5.1,4.5,9.1,9.6,9.7c1.5,0.2,6.2,0.5,12.4,0.5c20.1,0,57.2-3.6,82.3-27.7
		c8.8,3.6,14.9,5,16.4,5.3c1,0.2,1.8,0.2,2.3,0.2c2.3,0,4.5-0.7,6.5-2.1l0.6-0.5c0.4-0.3,0.9-0.7,1.7-1.3c5,9.5,12.6,26.1,16.5,45.7
		c0.8,4.2,4.1,7.6,8.3,8.6c1.1,0.3,1.9,0.3,2.4,0.3c3.6,0,6.9-1.7,8.9-4.7c46.9-66.5,46.6-108.8,44.4-123.8
		c5-5.2,9.6-10.3,14.1-15.3c28.2-31.6,50.7-62.6,66.9-92.2c20.7-37.8,31.1-73.6,31-106.4C353.4,4.9,348.5,0,342.5,0z M219.5,247.1
		c-3.2,24.9-16.4,51-27.3,69.1c-4.9-13.9-10.5-24.9-14.2-31.5C187.4,276.8,202.3,263.7,219.5,247.1z M106.2,134.1
		c-12.4,12.8-24.8,26.4-37.5,41.3c-6.6-3.7-17.5-9.3-31.5-14.2C55.3,150.4,81.2,137.4,106.2,134.1z M112.3,286.3
		c-9.7,6.8-29.4,16.8-61.8,16.6c0-15.2,2.2-42.3,16.6-61.8c5.6,9,12.4,17.5,20.1,25.2C94.7,273.8,103.2,280.5,112.3,286.3z
		 M149.6,279.7c-8.6-2.7-28.5-10.5-46.9-29c-17.8-17.8-25.9-37.3-29-47c9.4-11.8,41.4-50.8,84.8-89.5
		C202.6,74.7,267.7,27.5,331,22.4c-5.1,63.3-52.3,128.4-91.7,172.5C200.1,238.6,160.1,271.3,149.6,279.7z"/>
	<path class="st0" d="M279.3,74.2c-7.6-7.6-17.6-11.7-28.4-11.7c-10.6,0-20.7,4.1-28.4,11.7c-15.7,15.7-15.7,41.1,0,56.8
		c7.6,7.6,17.6,11.7,28.4,11.7s20.8-4.2,28.4-11.7s11.7-17.6,11.7-28.4C291,92,286.9,81.9,279.3,74.2z M263.8,115.5
		c-3.5,3.5-7.9,5.3-12.9,5.3c-4.8,0-9.4-1.9-12.9-5.3c-3.5-3.5-5.4-8.1-5.4-13c0-4.9,1.9-9.4,5.3-12.8l0,0c3.5-3.5,8-5.4,12.9-5.4
		c4.9,0,9.4,1.9,12.9,5.4c3.5,3.5,5.4,8,5.4,12.9C269.2,107.5,267.3,112,263.8,115.5z"/>
</g>
</svg>
