<?xml version="1.0" encoding="UTF-8" standalone="no"?>
<svg
   xmlns:dc="http://purl.org/dc/elements/1.1/"
   xmlns:cc="http://creativecommons.org/ns#"
   xmlns:rdf="http://www.w3.org/1999/02/22-rdf-syntax-ns#"
   xmlns:svg="http://www.w3.org/2000/svg"
   xmlns="http://www.w3.org/2000/svg"
   xmlns:sodipodi="http://sodipodi.sourceforge.net/DTD/sodipodi-0.dtd"
   xmlns:inkscape="http://www.inkscape.org/namespaces/inkscape"
   sodipodi:docname="rudolfinum.svg"
   inkscape:version="1.0beta1 (32d4812, 2019-09-19)"
   id="svg8"
   version="1.1"
   viewBox="0 0 210 297"
   height="297mm"
   width="210mm">
  <defs
     id="defs2" />
  <sodipodi:namedview
     inkscape:window-maximized="0"
     inkscape:window-y="23"
     inkscape:window-x="0"
     inkscape:window-height="799"
     inkscape:window-width="1440"
     showgrid="false"
     inkscape:document-rotation="0"
     inkscape:current-layer="layer1"
     inkscape:document-units="mm"
     inkscape:cy="606.51236"
     inkscape:cx="346.036"
     inkscape:zoom="0.93501418"
     inkscape:pageshadow="2"
     inkscape:pageopacity="0.0"
     borderopacity="1.0"
     bordercolor="#666666"
     pagecolor="#ffffff"
     id="base" />
  <metadata
     id="metadata5">
    <rdf:RDF>
      <cc:Work
         rdf:about="">
        <dc:format>image/svg+xml</dc:format>
        <dc:type
           rdf:resource="http://purl.org/dc/dcmitype/StillImage" />
        <dc:title></dc:title>
      </cc:Work>
    </rdf:RDF>
  </metadata>
  <g
     id="layer1"
     inkscape:groupmode="layer"
     inkscape:label="Layer 1">
    <path
       inkscape:connector-curvature="0"
       id="path849"
       d="m 103.89288,105.20811 c -4.601075,0.40167 -8.977125,0.60934 -13.478823,1.85541 -13.320156,3.68701 -24.893098,13.22424 -31.073342,25.55547 -11.505787,22.95716 -3.354804,51.95464 18.851025,65.2464 4.635339,2.77451 9.681449,4.82061 14.963774,5.97853 4.625174,1.01378 9.652206,1.56875 14.392636,1.11861 6.61411,-0.62791 12.98752,-2.18946 18.96172,-5.15839 14.97943,-7.44415 25.77688,-22.70623 27.39514,-39.37957 2.27335,-23.42154 -12.16658,-46.00746 -34.93413,-52.99298 -4.67874,-1.43554 -10.15355,-2.6534 -15.078,-2.22348 m 38.26613,27.29691 H 65.969422 c 0.44171,-1.38288 1.610597,-2.71947 2.470736,-3.87454 2.270265,-3.04894 4.953583,-5.80796 7.923941,-8.18214 14.715221,-11.76168 35.605891,-12.69303 51.516511,-2.80609 4.31631,2.68222 8.13813,6.19484 11.26007,10.19053 1.02164,1.30765 2.64059,3.02944 3.01833,4.67224 m -76.189588,0.22792 26.32036,46.03878 7.996598,14.01675 2.6134,4.55829 0.9931,2.05123 c -18.970525,0 -36.500876,-12.75718 -42.146952,-30.88244 -2.299247,-7.38125 -2.598173,-15.11735 -1.082258,-22.67752 0.912852,-4.55259 2.6448,-9.14006 5.077294,-13.10509 h 0.228458 m 38.266128,0 4.58498,8.09097 9.96998,17.43548 4.29255,7.63514 h 0.22845 c 1.37131,-3.26852 3.57636,-6.39779 5.36732,-9.45846 2.87031,-4.90506 5.69491,-9.85446 8.47017,-14.81445 1.17324,-2.09682 2.4013,-4.16309 3.56002,-6.26766 0.44343,-0.80545 0.95814,-2.18855 1.79268,-2.62102 0.98555,2.10582 2.14302,4.08913 2.9915,6.26766 2.02879,5.20875 3.19837,11.04007 3.06084,16.63777 -0.15296,6.22914 -1.5359,12.44882 -4.14576,18.11922 -7.12209,15.47404 -23.15594,25.6404 -40.17273,25.6404 l 1.38662,-2.73497 3.19836,-5.58391 9.12368,-15.95403 3.40831,-5.92578 1.73054,-3.19081 H 85.159602 l 1.616318,-3.19081 3.654014,-6.38161 8.942631,-15.72612 4.520315,-7.97701 z"
       style="fill:#000000;stroke:none;stroke-width:0.114092" />
  </g>
</svg>
