<?xml version="1.0" encoding="utf-8"?>
<!-- Generator: Adobe Illustrator 21.1.0, SVG Export Plug-In . SVG Version: 6.00 Build 0)  -->
<svg version="1.1" id="hipp_x5F_logo_x5F_dbadn.fw-Seite_x25_201"
	 xmlns="http://www.w3.org/2000/svg" xmlns:xlink="http://www.w3.org/1999/xlink" x="0px" y="0px" width="227px" height="90px"
	 viewBox="0 0 227 90" style="enable-background:new 0 0 227 90;" xml:space="preserve">
<style type="text/css">
	.st0{fill:#572380;}
	.st1{fill:#EA690B;}
	.st2{fill-rule:evenodd;clip-rule:evenodd;fill:#009DDF;}
	.st3{fill:#E1007A;}
	.st4{fill:#00478D;}
</style>
<g>
	<g>
		<path class="st0" d="M180.5,12.5c0,9.8-10,12.6-14.7,12.5h-3.5v14.2h-16.6V0h16.6h3.5C171.4,0,180.5,3.3,180.5,12.5 M162.2,17.1
			c1.8-1.7,5.7-3.4,5.7-3.4c2.8-1.7,1.7-4.4,1.7-4.4c-2.4-4.5-7.4-0.6-7.4-0.6s-5-4-7.4,0.6c0,0-1.2,2.7,1.7,4.4
			C156.5,13.7,160.4,15.5,162.2,17.1"/>
		<path class="st1" d="M151.6,12.5c0,9.8-10,12.6-14.7,12.5h-3.5v14.2h-16.6V0h16.6h3.5C142.5,0,151.6,3.3,151.6,12.5 M133.4,17.1
			c1.8-1.7,5.7-3.4,5.7-3.4c2.8-1.7,1.7-4.4,1.7-4.4c-2.4-4.5-7.4-0.6-7.4-0.6s-5-4-7.4,0.6c0,0-1.2,2.7,1.7,4.4
			C127.6,13.7,131.5,15.5,133.4,17.1"/>
		<path class="st2" d="M95.4,18.3H112v21.1H95.4V18.3z M103.8,17.1c2-1.8,6.2-3.7,6.2-3.7c3.1-1.9,1.8-4.8,1.8-4.8
			c-2.6-4.9-8-0.6-8-0.6s-5.5-4.3-8,0.6c0,0-1.3,3,1.8,4.8C97.6,13.4,101.8,15.3,103.8,17.1"/>
		<polygon class="st3" points="74.1,0 74.1,13.2 67.1,13.2 67.1,0 50.5,0 50.5,39.3 67.1,39.3 67.1,24.9 74.1,24.9 74.1,39.3 
			90.8,39.3 90.8,0 		"/>
	</g>
	<path class="st4" d="M6,64.3c0-0.6,0-1.2,0-1.7c0-0.5,0-1,0-1.5c0-0.5,0-1,0-1.5v-1.7v-1.9c0-0.6,0-1.1,0-1.6c0-0.5,0-1.1,0-1.6
		c0-0.6,0-1.2,0-1.8h3.1c1.8,0,3.2,0.3,4.2,1c1,0.7,1.4,1.6,1.4,2.8c0,0.6-0.1,1.2-0.4,1.7c-0.3,0.5-0.6,0.9-1.1,1.3
		c-0.5,0.3-1,0.6-1.7,0.8c-0.7,0.2-1.4,0.3-2.2,0.3c-0.3,0-0.6,0-0.8,0c-0.2,0-0.5,0-0.8,0v1.6c0,0.4,0,0.9,0,1.3c0,0.4,0,0.8,0,1.3
		c0,0.5,0,1,0,1.6H6z M7.7,52.1c0,0.2,0,0.5,0,1c0,0.5,0,1,0,1.6v1.6v1.1c0.2,0,0.4,0,0.6,0H9c1.4,0,2.4-0.2,3.1-0.7
		c0.7-0.4,1-1.1,1-2c0-0.8-0.3-1.4-1-1.9c-0.6-0.5-1.7-0.7-3.1-0.7H7.7z"/>
	<path class="st4" d="M18.2,56.8c0.3-0.6,0.8-1.1,1.3-1.5c0.5-0.3,1-0.5,1.4-0.5c0.2,0,0.4,0,0.6,0c0.2,0,0.3,0.1,0.4,0.1l-0.5,1.6
		c-0.3-0.1-0.6-0.1-0.8-0.1c-0.4,0-0.8,0.1-1.2,0.3c-0.4,0.2-0.7,0.6-1.1,1.2c0,0.3,0,0.7-0.1,1.2c0,0.5,0,1,0,1.7
		c0,0.5,0,1.1,0,1.7c0,0.6,0,1.2,0.1,1.8h-1.7c0-0.4,0-0.8,0-1.2c0-0.4,0-0.7,0-1.1c0-0.4,0-0.7,0-1.1v-1.2v-1.3c0-0.4,0-0.7,0-1.1
		c0-0.3,0-0.7,0-1.1c0-0.4,0-0.8,0-1.2H18L18.2,56.8z"/>
	<path class="st4" d="M22.5,59.8c0-0.7,0.1-1.4,0.3-2c0.2-0.6,0.6-1.1,1-1.6c0.4-0.4,0.9-0.8,1.5-1.1c0.6-0.3,1.2-0.4,1.9-0.4
		c0.7,0,1.4,0.1,1.9,0.3c0.6,0.2,1.1,0.6,1.5,1c0.4,0.4,0.7,0.9,0.9,1.5c0.2,0.6,0.3,1.2,0.3,1.9c0,0.7-0.1,1.4-0.3,2
		c-0.2,0.6-0.6,1.1-1,1.6c-0.4,0.4-0.9,0.8-1.5,1c-0.6,0.3-1.2,0.4-1.9,0.4c-0.7,0-1.4-0.1-1.9-0.3c-0.6-0.2-1.1-0.5-1.5-1
		c-0.4-0.4-0.7-0.9-0.9-1.5C22.6,61.1,22.5,60.5,22.5,59.8 M30.3,59.7c0-0.6-0.1-1.1-0.2-1.5c-0.1-0.5-0.4-0.8-0.6-1.2
		c-0.3-0.3-0.6-0.6-1-0.8C28.1,56,27.7,56,27.2,56c-0.5,0-0.9,0.1-1.3,0.3c-0.4,0.2-0.7,0.4-1,0.8c-0.3,0.3-0.5,0.7-0.6,1.2
		c-0.2,0.5-0.2,1-0.2,1.5c0,0.6,0.1,1.1,0.2,1.5c0.2,0.5,0.4,0.8,0.6,1.2c0.3,0.3,0.6,0.6,1,0.8c0.4,0.2,0.8,0.3,1.3,0.3
		c0.5,0,0.9-0.1,1.3-0.3c0.4-0.2,0.7-0.4,1-0.8c0.3-0.3,0.5-0.7,0.6-1.2C30.2,60.7,30.3,60.2,30.3,59.7"/>
	<path class="st4" d="M40,56.1c0,1.1,0,2.1,0,3.1c0,1,0,1.9,0.1,2.7c0,0.4,0.2,0.8,0.5,1c0.3,0.2,0.6,0.3,0.9,0.3
		c0.4,0,0.7,0,0.9-0.1c0.3-0.1,0.5-0.2,0.8-0.3l0.5,1c-0.7,0.5-1.5,0.7-2.5,0.7c-0.8,0-1.4-0.3-1.9-0.8c-0.5-0.5-0.8-1.3-0.8-2.3
		c0-0.4,0-0.8,0-1.2c0-0.5,0-0.9,0-1.4c0-0.5,0-1,0-1.4c0-0.5,0-0.9,0-1.3H37V55h1.7v-1.2c0-0.4,0-0.8,0-1.2l1.6-0.4
		c-0.1,0.5-0.1,1-0.1,1.5c0,0.5,0,0.9,0,1.3h3.1v1.1H40z"/>
	<path class="st4" d="M44.7,59.8c0-0.7,0.1-1.4,0.3-2c0.2-0.6,0.6-1.1,1-1.6c0.4-0.4,0.9-0.8,1.5-1.1c0.6-0.3,1.2-0.4,1.9-0.4
		c0.7,0,1.4,0.1,1.9,0.3c0.6,0.2,1.1,0.6,1.5,1c0.4,0.4,0.7,0.9,0.9,1.5c0.2,0.6,0.3,1.2,0.3,1.9c0,0.7-0.1,1.4-0.3,2
		c-0.2,0.6-0.6,1.1-1,1.6c-0.4,0.4-0.9,0.8-1.5,1c-0.6,0.3-1.2,0.4-1.9,0.4c-0.7,0-1.4-0.1-1.9-0.3c-0.6-0.2-1.1-0.5-1.5-1
		c-0.4-0.4-0.7-0.9-0.9-1.5C44.8,61.1,44.7,60.5,44.7,59.8 M52.5,59.7c0-0.6-0.1-1.1-0.2-1.5c-0.1-0.5-0.4-0.8-0.6-1.2
		c-0.3-0.3-0.6-0.6-1-0.8C50.3,56,49.9,56,49.4,56c-0.5,0-0.9,0.1-1.3,0.3c-0.4,0.2-0.7,0.4-1,0.8c-0.3,0.3-0.5,0.7-0.6,1.2
		c-0.2,0.5-0.2,1-0.2,1.5c0,0.6,0.1,1.1,0.2,1.5c0.2,0.5,0.4,0.8,0.6,1.2s0.6,0.6,1,0.8c0.4,0.2,0.8,0.3,1.3,0.3
		c0.5,0,0.9-0.1,1.3-0.3c0.4-0.2,0.7-0.4,1-0.8c0.3-0.3,0.5-0.7,0.6-1.2C52.4,60.7,52.5,60.2,52.5,59.7"/>
	<path class="st4" d="M61.9,56.6c0.4-0.6,0.9-1,1.4-1.3c0.5-0.3,1.1-0.5,1.9-0.5c1,0,1.7,0.3,2.3,0.9c0.6,0.6,0.8,1.4,0.8,2.5
		c0,0.6,0,1.2,0,1.6c0,0.4,0,0.8,0,1.3v0.8c0,0.3,0,0.5,0,0.7c0,0.2,0,0.5,0,0.8c0,0.3,0,0.5,0.1,0.9h-1.7c0-0.3,0-0.6,0-0.8
		c0-0.2,0-0.5,0-0.7c0-0.2,0-0.5,0-0.7v-0.8v-0.8v-0.9c0-0.3,0-0.5,0-0.8c0-0.2,0-0.4,0-0.5c0-0.7-0.2-1.2-0.6-1.6
		c-0.4-0.3-0.8-0.5-1.5-0.5c-0.5,0-0.9,0.1-1.4,0.4c-0.5,0.3-0.9,0.7-1.3,1.2c0,0.4,0,0.9-0.1,1.4c0,0.6,0,1.1,0,1.7v0.9
		c0,0.3,0,0.5,0,0.8c0,0.3,0,0.5,0,0.8c0,0.3,0,0.6,0,0.9h-1.7c0-0.4,0-0.8,0-1.2c0-0.4,0-0.7,0-1.1c0-0.4,0-0.7,0-1.1v-1.2v-1.2
		c0-0.4,0-0.7,0-1.1c0-0.3,0-0.7,0-1c0-0.4,0-0.8,0-1.3h1.4L61.9,56.6z"/>
	<path class="st4" d="M72,59.8c0.1,1.2,0.4,2.1,1.1,2.6c0.7,0.6,1.5,0.8,2.5,0.8c0.5,0,1-0.1,1.5-0.3c0.5-0.2,0.9-0.4,1.2-0.7
		l0.5,1.1c-0.5,0.4-1,0.7-1.6,0.8c-0.6,0.2-1.3,0.3-2,0.3c-0.7,0-1.3-0.1-1.9-0.3c-0.6-0.2-1.1-0.5-1.5-1c-0.4-0.4-0.8-1-1-1.6
		c-0.2-0.6-0.4-1.3-0.4-2.1c0-0.7,0.1-1.4,0.3-1.9c0.2-0.6,0.5-1.1,0.9-1.5c0.4-0.4,0.8-0.7,1.4-0.9c0.5-0.2,1.1-0.3,1.8-0.3
		c0.6,0,1.1,0.1,1.6,0.3c0.5,0.2,0.9,0.4,1.2,0.8c0.4,0.4,0.6,0.8,0.8,1.3c0.2,0.5,0.3,1.1,0.3,1.8v0.4c0,0.1,0,0.3,0,0.4H72z
		 M74.6,55.9c-0.8,0-1.4,0.3-1.9,0.8c-0.5,0.5-0.8,1.2-0.8,2.1h5.3c-0.1-1-0.3-1.7-0.7-2.2C76.1,56.1,75.5,55.9,74.6,55.9"/>
	<path class="st4" d="M82.6,59.2c0,0.7,0,1.4,0,2.2c0,0.8,0,1.5,0,2.2c0,0.9-0.1,1.6-0.2,2.2c-0.1,0.6-0.3,1.1-0.6,1.4
		c-0.3,0.4-0.6,0.7-1.1,1c-0.5,0.3-1,0.5-1.7,0.7l-0.4-0.9c0.5-0.2,0.9-0.4,1.2-0.6c0.3-0.2,0.5-0.5,0.7-0.7c0.2-0.3,0.3-0.6,0.4-1
		c0.1-0.4,0.1-0.8,0.1-1.3c0-1.1,0-2,0-2.9c0-0.9,0-1.6,0-2.4c0-0.7,0-1.4,0-2.1c0-0.7,0-1.3-0.1-1.9h1.7c0,0.4,0,0.8,0,1.2
		c0,0.3,0,0.7,0,1c0,0.3,0,0.6,0,1V59.2z M82.9,51.8c0,0.3-0.1,0.5-0.3,0.7c-0.2,0.2-0.4,0.3-0.8,0.3s-0.6-0.1-0.8-0.3
		c-0.2-0.2-0.3-0.4-0.3-0.7c0-0.3,0.1-0.5,0.3-0.7c0.2-0.2,0.5-0.3,0.8-0.3s0.6,0.1,0.8,0.3C82.8,51.3,82.9,51.6,82.9,51.8"/>
	<path class="st4" d="M89.7,56c-0.5,0-0.9,0.1-1.3,0.3c-0.4,0.2-0.7,0.4-1,0.7c-0.3,0.3-0.5,0.7-0.7,1.1c-0.2,0.4-0.2,0.9-0.2,1.3
		c0,0.7,0.1,1.2,0.3,1.7c0.2,0.5,0.4,0.9,0.7,1.2c0.3,0.3,0.7,0.6,1.1,0.7c0.4,0.2,0.8,0.2,1.3,0.2c0.4,0,0.8-0.1,1.2-0.2
		c0.4-0.1,0.8-0.3,1.2-0.6l0.5,1c-0.5,0.4-1,0.7-1.6,0.8c-0.6,0.2-1.2,0.3-1.8,0.3c-0.6,0-1.2-0.1-1.8-0.3c-0.5-0.2-1-0.5-1.4-0.9
		c-0.4-0.4-0.7-0.9-0.9-1.5c-0.2-0.6-0.3-1.3-0.3-2.1c0-0.7,0.1-1.3,0.3-1.8c0.2-0.6,0.6-1.1,1-1.5c0.4-0.4,0.9-0.8,1.5-1
		c0.6-0.3,1.2-0.4,1.9-0.4c0.6,0,1.1,0,1.6,0.1c0.5,0.1,0.9,0.2,1.3,0.4l-0.4,1.1c-0.3-0.2-0.7-0.3-1.1-0.4C90.6,56,90.2,56,89.7,56
		"/>
	<path class="st4" d="M95.2,59.8c0.1,1.2,0.4,2.1,1.1,2.6c0.7,0.6,1.5,0.8,2.5,0.8c0.5,0,1-0.1,1.5-0.3c0.5-0.2,0.9-0.4,1.2-0.7
		l0.5,1.1c-0.5,0.4-1,0.7-1.6,0.8c-0.6,0.2-1.3,0.3-2,0.3c-0.7,0-1.3-0.1-1.9-0.3c-0.6-0.2-1.1-0.5-1.5-1c-0.4-0.4-0.8-1-1-1.6
		c-0.2-0.6-0.4-1.3-0.4-2.1c0-0.7,0.1-1.4,0.3-1.9c0.2-0.6,0.5-1.1,0.9-1.5c0.4-0.4,0.8-0.7,1.4-0.9c0.5-0.2,1.1-0.3,1.8-0.3
		c0.6,0,1.1,0.1,1.6,0.3c0.5,0.2,0.9,0.4,1.2,0.8c0.4,0.4,0.6,0.8,0.8,1.3c0.2,0.5,0.3,1.1,0.3,1.8v0.4c0,0.1,0,0.3,0,0.4H95.2z
		 M97.9,55.9c-0.8,0-1.4,0.3-1.9,0.8c-0.5,0.5-0.8,1.2-0.8,2.1h5.3c-0.1-1-0.3-1.7-0.7-2.2C99.3,56.1,98.7,55.9,97.9,55.9"/>
	<path class="st4" d="M105.9,56.6c0.4-0.6,0.9-1,1.4-1.3c0.5-0.3,1.1-0.5,1.9-0.5c1,0,1.7,0.3,2.3,0.9c0.6,0.6,0.8,1.4,0.8,2.5
		c0,0.6,0,1.2,0,1.6c0,0.4,0,0.8,0,1.3v0.8c0,0.3,0,0.5,0,0.7c0,0.2,0,0.5,0,0.8c0,0.3,0,0.5,0.1,0.9h-1.7c0-0.3,0-0.6,0-0.8
		c0-0.2,0-0.5,0-0.7c0-0.2,0-0.5,0-0.7v-0.8v-0.8v-0.9c0-0.3,0-0.5,0-0.8c0-0.2,0-0.4,0-0.5c0-0.7-0.2-1.2-0.6-1.6
		c-0.4-0.3-0.8-0.5-1.5-0.5c-0.5,0-0.9,0.1-1.4,0.4c-0.5,0.3-0.9,0.7-1.3,1.2c0,0.4,0,0.9-0.1,1.4c0,0.6,0,1.1,0,1.7v0.9
		c0,0.3,0,0.5,0,0.8c0,0.3,0,0.5,0,0.8c0,0.3,0,0.6,0,0.9h-1.7c0-0.4,0-0.8,0-1.2c0-0.4,0-0.7,0-1.1c0-0.4,0-0.7,0-1.1v-1.2v-1.2
		c0-0.4,0-0.7,0-1.1c0-0.3,0-0.7,0-1c0-0.4,0-0.8,0-1.3h1.4L105.9,56.6z"/>
	<path class="st4" d="M116.7,56.6c0.4-0.6,0.9-1,1.4-1.3c0.5-0.3,1.1-0.5,1.9-0.5c1,0,1.7,0.3,2.3,0.9c0.6,0.6,0.8,1.4,0.8,2.5
		c0,0.6,0,1.2,0,1.6c0,0.4,0,0.8,0,1.3v0.8c0,0.3,0,0.5,0,0.7c0,0.2,0,0.5,0,0.8c0,0.3,0,0.5,0.1,0.9h-1.7c0-0.3,0-0.6,0-0.8
		c0-0.2,0-0.5,0-0.7c0-0.2,0-0.5,0-0.7v-0.8v-0.8v-0.9c0-0.3,0-0.5,0-0.8c0-0.2,0-0.4,0-0.5c0-0.7-0.2-1.2-0.6-1.6
		c-0.4-0.3-0.8-0.5-1.5-0.5c-0.5,0-1,0.1-1.4,0.4c-0.5,0.3-0.9,0.7-1.2,1.2c0,0.4,0,0.9-0.1,1.4c0,0.6,0,1.1,0,1.7v0.9
		c0,0.3,0,0.5,0,0.8c0,0.3,0,0.5,0,0.8c0,0.3,0,0.6,0,0.9h-1.7c0-0.4,0-0.8,0-1.2c0-0.4,0-0.7,0-1.1c0-0.4,0-0.7,0-1.1v-1.2v-1.2
		c0-0.4,0-0.7,0-1.1c0-0.3,0-0.7,0-1c0-0.4,0-0.8,0-1.3h1.4L116.7,56.6z"/>
	<path class="st4" d="M126.8,60c0,2.2,1.4,3.2,3.1,3.2c1.2,0,1.9-0.2,2.5-0.5l0.3,1.2c-0.6,0.3-1.6,0.6-3,0.6
		c-2.8,0-4.5-1.9-4.5-4.6c0-2.7,1.6-4.9,4.3-4.9c3,0,3.8,2.6,3.8,4.3c0,0.3,0,0.6-0.1,0.8H126.8z M131.6,58.8c0-1-0.4-2.7-2.3-2.7
		c-1.7,0-2.4,1.5-2.5,2.7H131.6z M128.6,53.9l-1.8-2.7h1.3l1.1,1.8h0l1.1-1.8h1.2l-1.8,2.7H128.6z"/>
	<path class="st4" d="M136.9,59.2c0,0.7,0,1.4,0,2.2c0,0.8,0,1.5,0,2.2c0,0.9-0.1,1.6-0.2,2.2c-0.1,0.6-0.3,1.1-0.6,1.4
		c-0.3,0.4-0.6,0.7-1.1,1c-0.5,0.3-1,0.5-1.7,0.7l-0.4-0.9c0.5-0.2,0.9-0.4,1.2-0.6c0.3-0.2,0.5-0.5,0.7-0.7c0.2-0.3,0.3-0.6,0.4-1
		c0.1-0.4,0.1-0.8,0.1-1.3c0-1.1,0-2,0-2.9c0-0.9,0-1.6,0-2.4c0-0.7,0-1.4,0-2.1c0-0.7,0-1.3-0.1-1.9h1.7c0,0.4,0,0.8,0,1.2
		c0,0.3,0,0.7,0,1c0,0.3,0,0.6,0,1V59.2z M137.2,51.8c0,0.3-0.1,0.5-0.3,0.7c-0.2,0.2-0.4,0.3-0.8,0.3s-0.6-0.1-0.8-0.3
		c-0.2-0.2-0.3-0.4-0.3-0.7c0-0.3,0.1-0.5,0.3-0.7c0.2-0.2,0.5-0.3,0.8-0.3s0.6,0.1,0.8,0.3C137.2,51.3,137.2,51.6,137.2,51.8"/>
	<path class="st4" d="M145.4,56.4c-0.3-0.1-0.7-0.2-1.1-0.3c-0.4-0.1-0.8-0.1-1.2-0.1c-0.8,0-1.4,0.1-1.7,0.3
		c-0.3,0.2-0.5,0.5-0.5,0.8c0,0.3,0.1,0.5,0.3,0.7c0.2,0.2,0.6,0.4,1.1,0.6l1.2,0.5c0.9,0.4,1.6,0.8,1.9,1.2c0.3,0.4,0.5,1,0.5,1.6
		c0,0.4-0.1,0.7-0.3,1.1c-0.2,0.3-0.4,0.6-0.7,0.8c-0.3,0.2-0.7,0.4-1.1,0.5c-0.4,0.1-0.9,0.2-1.4,0.2c-0.8,0-1.4-0.1-2-0.2
		c-0.5-0.1-1-0.3-1.4-0.5l0.4-1.1c0.4,0.2,0.9,0.4,1.4,0.5c0.5,0.1,1,0.2,1.5,0.2c0.7,0,1.2-0.1,1.5-0.4c0.3-0.3,0.5-0.6,0.5-0.9
		c0-0.2,0-0.3-0.1-0.5c-0.1-0.1-0.1-0.3-0.3-0.4c-0.1-0.1-0.3-0.3-0.5-0.4c-0.2-0.1-0.5-0.3-0.9-0.4l-1.2-0.5
		c-0.7-0.3-1.2-0.6-1.6-1c-0.4-0.4-0.5-0.9-0.5-1.5c0-0.4,0.1-0.7,0.2-1c0.2-0.3,0.4-0.6,0.7-0.8c0.3-0.2,0.7-0.4,1.1-0.5
		c0.5-0.1,1-0.2,1.6-0.2c0.5,0,1,0,1.4,0.1c0.4,0.1,0.8,0.2,1.2,0.3L145.4,56.4z M140,50.6l2.7,1.7l2.7-1.7l0.6,0.8l-3.3,2.6
		l-3.4-2.6L140,50.6z"/>
	<path class="st4" d="M151.4,50.6l1,1.1l-4.1,2.3l-0.7-0.8L151.4,50.6z M149.8,59.6v1.2c0,0.4,0,0.7,0,1.1c0,0.4,0,0.7,0,1.1
		c0,0.4,0,0.8,0,1.2h-1.7c0-0.4,0-0.8,0-1.2c0-0.4,0-0.7,0-1.1c0-0.4,0-0.7,0-1.1v-1.2v-1.3c0-0.4,0-0.7,0-1c0-0.3,0-0.7,0-1
		c0-0.4,0-0.8,0-1.3h1.7c0,0.5,0,0.9,0,1.3c0,0.4,0,0.7,0,1c0,0.3,0,0.7,0,1.1V59.6z"/>
	<path class="st4" d="M157.2,55c0.2,0.5,0.5,1.1,0.8,1.7c0.3,0.7,0.6,1.4,0.9,2.1c0.3,0.7,0.6,1.4,0.9,2.1c0.3,0.7,0.5,1.3,0.7,1.8
		c0.2-0.5,0.4-1.1,0.7-1.8c0.3-0.7,0.6-1.4,0.8-2.1c0.3-0.7,0.6-1.4,0.9-2.1c0.3-0.7,0.5-1.2,0.7-1.7h1.5c-0.3,0.6-0.6,1.3-1,2.1
		c-0.4,0.8-0.7,1.6-1.1,2.5c-0.4,0.9-0.8,1.7-1.1,2.5c-0.4,0.8-0.7,1.6-1,2.3h-1.1c-0.3-0.6-0.6-1.3-0.9-2.1
		c-0.3-0.8-0.7-1.6-1.1-2.4c-0.4-0.8-0.7-1.7-1.1-2.5c-0.4-0.8-0.8-1.6-1.1-2.4H157.2z"/>
	<path class="st4" d="M177.6,56.2c-0.4,0.5-0.9,1-1.4,1.6c-0.5,0.6-1.1,1.2-1.6,1.8c-0.5,0.6-1.1,1.2-1.6,1.9
		c-0.5,0.6-1,1.2-1.4,1.7c1.3,0,2.5,0,3.6,0c1.2,0,2.2-0.1,3-0.1l-0.7,1.2h-7.8V63c0.4-0.4,0.8-0.9,1.3-1.5c0.5-0.6,1.1-1.2,1.6-1.8
		c0.6-0.6,1.1-1.3,1.6-1.9c0.5-0.6,1-1.2,1.4-1.7c-1.4,0-2.6,0-3.5,0c-0.9,0-1.7,0.1-2.4,0.1V55h7.7V56.2z M171,50.6l2.7,1.7
		l2.7-1.7l0.6,0.8l-3.4,2.6l-3.4-2.6L171,50.6z"/>
	<path class="st4" d="M182.1,51.8c0,0.3-0.1,0.5-0.3,0.7c-0.2,0.2-0.4,0.3-0.8,0.3c-0.4,0-0.6-0.1-0.8-0.3c-0.2-0.2-0.3-0.4-0.3-0.7
		c0-0.3,0.1-0.5,0.3-0.7c0.2-0.2,0.5-0.3,0.8-0.3c0.4,0,0.6,0.1,0.8,0.3C182,51.3,182.1,51.6,182.1,51.8 M181.7,59.6v1.2
		c0,0.4,0,0.7,0,1.1c0,0.4,0,0.7,0,1.1c0,0.4,0,0.8,0,1.2h-1.7c0-0.4,0-0.8,0-1.2c0-0.4,0-0.7,0-1.1c0-0.4,0-0.7,0-1.1v-1.2v-1.3
		c0-0.4,0-0.7,0-1c0-0.3,0-0.7,0-1c0-0.4,0-0.8,0-1.3h1.7c0,0.5,0,0.9,0,1.3c0,0.4,0,0.7,0,1c0,0.3,0,0.7,0,1.1V59.6z"/>
	<path class="st4" d="M185.2,55c0.2,0.5,0.5,1.1,0.8,1.7c0.3,0.7,0.6,1.4,0.9,2.1c0.3,0.7,0.6,1.4,0.9,2.1c0.3,0.7,0.5,1.3,0.7,1.8
		c0.2-0.5,0.4-1.1,0.7-1.8c0.3-0.7,0.6-1.4,0.8-2.1c0.3-0.7,0.6-1.4,0.9-2.1c0.3-0.7,0.5-1.2,0.7-1.7h1.5c-0.3,0.6-0.6,1.3-1,2.1
		c-0.4,0.8-0.7,1.6-1.1,2.5c-0.4,0.9-0.8,1.7-1.1,2.5c-0.4,0.8-0.7,1.6-1,2.3h-1.1c-0.3-0.6-0.6-1.3-0.9-2.1
		c-0.3-0.8-0.7-1.6-1.1-2.4c-0.4-0.8-0.7-1.7-1.1-2.5c-0.4-0.8-0.8-1.6-1.1-2.4H185.2z"/>
	<path class="st4" d="M193.8,59.8c0-0.7,0.1-1.4,0.3-2c0.2-0.6,0.6-1.1,1-1.6c0.4-0.4,0.9-0.8,1.5-1.1c0.6-0.3,1.2-0.4,1.9-0.4
		c0.7,0,1.4,0.1,1.9,0.3c0.6,0.2,1.1,0.6,1.5,1c0.4,0.4,0.7,0.9,0.9,1.5c0.2,0.6,0.3,1.2,0.3,1.9c0,0.7-0.1,1.4-0.3,2
		c-0.2,0.6-0.6,1.1-1,1.6c-0.4,0.4-0.9,0.8-1.5,1c-0.6,0.3-1.2,0.4-1.9,0.4c-0.7,0-1.4-0.1-1.9-0.3c-0.6-0.2-1.1-0.5-1.5-1
		c-0.4-0.4-0.7-0.9-0.9-1.5C193.9,61.1,193.8,60.5,193.8,59.8 M201.6,59.7c0-0.6-0.1-1.1-0.2-1.5c-0.1-0.5-0.4-0.8-0.6-1.2
		c-0.3-0.3-0.6-0.6-1-0.8c-0.4-0.2-0.8-0.3-1.3-0.3s-0.9,0.1-1.3,0.3c-0.4,0.2-0.7,0.4-1,0.8c-0.3,0.3-0.5,0.7-0.6,1.2
		c-0.2,0.5-0.2,1-0.2,1.5c0,0.6,0.1,1.1,0.2,1.5c0.2,0.5,0.4,0.8,0.6,1.2c0.3,0.3,0.6,0.6,1,0.8c0.4,0.2,0.8,0.3,1.3,0.3
		s0.9-0.1,1.3-0.3c0.4-0.2,0.7-0.4,1-0.8c0.3-0.3,0.5-0.7,0.6-1.2C201.5,60.7,201.6,60.2,201.6,59.7"/>
	<path class="st4" d="M207.3,56.1c0,1.1,0,2.1,0,3.1c0,1,0,1.9,0.1,2.7c0,0.4,0.2,0.8,0.5,1c0.3,0.2,0.6,0.3,0.9,0.3
		c0.3,0,0.7,0,0.9-0.1c0.3-0.1,0.5-0.2,0.8-0.3l0.5,1c-0.7,0.5-1.5,0.7-2.5,0.7c-0.8,0-1.4-0.3-1.9-0.8c-0.5-0.5-0.8-1.3-0.8-2.3
		c0-0.4,0-0.8,0-1.2c0-0.5,0-0.9,0-1.4c0-0.5,0-1,0-1.4c0-0.5,0-0.9,0-1.3h-1.6V55h1.7v-1.2c0-0.4,0-0.8,0-1.2l1.6-0.4
		c-0.1,0.5-0.1,1-0.1,1.5c0,0.5,0,0.9,0,1.3h3.1v1.1H207.3z"/>
	<path class="st4" d="M213.5,60c0,2.2,1.4,3.2,3.1,3.2c1.2,0,1.9-0.2,2.5-0.5l0.3,1.2c-0.6,0.3-1.6,0.6-3,0.6
		c-2.8,0-4.5-1.9-4.5-4.6c0-2.7,1.6-4.9,4.3-4.9c3,0,3.8,2.6,3.8,4.3c0,0.3,0,0.6-0.1,0.8H213.5z M218.4,58.8c0-1-0.4-2.7-2.3-2.7
		c-1.7,0-2.4,1.5-2.5,2.7H218.4z M215.4,53.9l-1.8-2.7h1.3l1.1,1.8h0l1.1-1.8h1.2l-1.8,2.7H215.4z"/>
	<path class="st4" d="M224.1,63.4c0,0.3-0.1,0.6-0.3,0.8c-0.2,0.2-0.5,0.3-0.9,0.3c-0.4,0-0.7-0.1-0.9-0.3c-0.2-0.2-0.3-0.5-0.3-0.8
		c0-0.3,0.1-0.6,0.3-0.8c0.2-0.2,0.5-0.3,0.9-0.3c0.4,0,0.7,0.1,0.9,0.3C224,62.8,224.1,63.1,224.1,63.4"/>
</g>
</svg>
