<?xml version="1.0" encoding="utf-8"?>
<!-- Generator: Adobe Illustrator 21.1.0, SVG Export Plug-In . SVG Version: 6.00 Build 0)  -->
<svg version="1.1" id="Logo" xmlns="http://www.w3.org/2000/svg" xmlns:xlink="http://www.w3.org/1999/xlink" x="0px" y="0px"
	 viewBox="0 0 283.5 64.8" style="enable-background:new 0 0 283.5 64.8;" xml:space="preserve">
<style type="text/css">
	.st0{fill:#E30613;}
</style>
<g id="JH_1_">
	<path d="M27.3,31.4c-0.4,1.3-0.7,2.8-0.7,3.8c0,3.9,3,6.4,9.3,6.4c8.3,0,11.5-3,13.3-9.4l5.4-18.5h-7.7L41.5,32
		c-0.6,2-1.8,2.9-4.2,2.9c-2.2,0-3-1.1-2.5-3l5.4-18.3h-7.7L27.3,31.4z"/>
	<polygon points="131.2,41.2 149.4,41.2 151.3,34.7 140.8,34.7 142,30.5 151.3,30.5 153.1,24.2 143.9,24.2 145.2,19.9 155.7,19.9 
		157.5,13.7 139.3,13.7 	"/>
	<path d="M250.4,13.3c-7.5,0-13.1,0.9-16.8,14.8c-0.6,2.4-1,4.5-1,6.3c0,4.4,2.4,7.2,10,7.2c1.9,0,4.4-0.3,6.1-0.9l1.9-6.4
		c0,0-2,0.5-5.2,0.5c-3.5,0-4.4-1.1-4.4-2.9c0-1.1,0.3-2.3,0.7-3.7c1.9-7.4,4-8.2,7.8-8.2c3.2,0,5,0.5,5,0.5l2-6.6
		C255.2,13.7,252.3,13.3,250.4,13.3z"/>
	<path d="M1.3,41c1.1,0.3,3.8,0.6,6,0.6c9.8,0,13.8-2.7,16-10.2l5.3-17.7h-7.7l-4.6,15.8C16,30,15.7,31,15.3,31.8
		c-1.3,2.3-3.8,2.9-6.7,2.9c-2.9,0-5.4-0.4-5.4-0.4L1.3,41z"/>
	<path d="M192.9,41.2h7.6l2.7-9.2h2.1l2.3,9.2h8.3l-3.1-10.5c2.3-0.7,5-1.5,6.8-7.6c0.5-1.6,0.7-3.3,0.7-4.2c0-3.3-2-5.3-6.9-5.3
		H201L192.9,41.2z M204.9,26.2l1.8-6.2h3.5c1.3,0,2,0.7,2,1.8c0,2.6-1.3,4.4-3.9,4.4H204.9z"/>
	<path d="M103.8,25.3H93.5L92,30.4h3.3l-1.3,4.4c0,0-1.1,0.2-2.4,0.2c-2.8,0-3.2-1.2-3.2-3c0-1.1,0.3-2.4,0.6-3.8
		c1.9-7.4,4.1-8.3,7.9-8.3c4,0,7.1,0.8,7.1,0.8l2-6.4c-1.1-0.4-4.6-1-8.1-1c-7.5,0-13.1,0.8-16.8,14.7c-0.6,2.4-0.9,4.4-0.9,6.3
		c0,4.4,2.6,7.3,10.1,7.3c3.6,0,7.4-0.6,9.2-1.2L103.8,25.3z"/>
	<polygon points="161.6,13.7 169.3,13.7 161.2,41.2 153.5,41.2 	"/>
	<path d="M59.1,13.7h6.5l4,14.7h0.1c0,0,0.6-2.4,1.2-4.4l3-10.2h7.6l-8.1,27.5h-6.5l-4.1-14.5h-0.1c0,0-0.6,2.2-1.2,4.5l-3,10h-7.6
		L59.1,13.7z"/>
	<path d="M173.9,13.7h6.5l4,14.7h0.1c0,0,0.6-2.4,1.2-4.4l3-10.2h7.6l-8.1,27.5h-6.5l-4.1-14.5h-0.1c0,0-0.6,2.2-1.2,4.5l-3,10h-7.6
		L173.9,13.7z"/>
	<polygon points="226.3,13.7 234,13.7 225.9,41.2 218.1,41.2 	"/>
	<polygon points="111.6,13.7 119.3,13.7 116.1,24.4 123.6,24.4 126.8,13.7 134.5,13.7 126.4,41.2 118.7,41.2 121.8,30.7 114.2,30.7 
		111.1,41.2 103.4,41.2 	"/>
	<polygon points="260.5,13.7 268.2,13.7 265,24.4 272.6,24.4 275.8,13.7 283.5,13.7 275.3,41.2 267.6,41.2 270.7,30.7 263.2,30.7 
		260.1,41.2 252.3,41.2 	"/>
	<path class="st0" d="M29.6,11.3L17.9,0L0,11.3h10.1L4,31.8c0,0,2,0.3,4.8,0.3c2.2,0,3.5-0.7,4.1-1.7c0.3-0.6,0.4-0.8,0.7-1.8
		l5.2-17.4H29.6z"/>
</g>
</svg>
