<?xml version="1.0" encoding="UTF-8" standalone="no"?><!DOCTYPE svg PUBLIC "-//W3C//DTD SVG 1.1//EN" "http://www.w3.org/Graphics/SVG/1.1/DTD/svg11.dtd"><svg width="100%" height="100%" viewBox="0 0 1250 450" version="1.1" xmlns="http://www.w3.org/2000/svg" xmlns:xlink="http://www.w3.org/1999/xlink" xml:space="preserve" xmlns:serif="http://www.serif.com/" style="fill-rule:evenodd;clip-rule:evenodd;stroke-linejoin:round;stroke-miterlimit:1.41421;"><path id="_-Curves-" serif:id="(Curves)" d="M604.792,35.122c-6.772,1.189 -10.574,2.377 -16.158,4.99c-18.357,8.555 -28.931,23.05 -34.218,46.931c-1.188,5.406 -1.248,7.545 -1.426,56.139c-0.297,54.415 -0.178,57.326 2.792,68.91c3.089,12.297 7.782,21.03 15.683,29.288c10.337,10.811 22.753,16.336 40.04,17.94c13.544,1.248 28.455,-1.069 38.673,-5.94c20.911,-10.04 32.139,-30.238 33.089,-59.703c0.297,-8.258 0.238,-9.03 -0.891,-10.812c-2.198,-3.505 -4.039,-4.04 -14.02,-4.04c-13.069,0 -14.792,1.248 -15.386,11.525c-0.594,8.733 -1.485,14.198 -3.326,19.188c-4.872,13.307 -15.268,20.02 -31.01,20.079c-22.278,0.06 -33.386,-11.168 -34.812,-35.109c-0.238,-4.039 -0.297,-28.752 -0.119,-54.891c0.297,-43.544 0.416,-47.821 1.426,-51.386c4.455,-15.921 13.663,-23.168 30.653,-24.119c19.366,-1.128 31.961,8.198 35.584,26.317c1.545,7.664 3.149,9.743 8.436,10.931c1.96,0.475 3.683,0.238 8.673,-0.951c3.446,-0.831 7.426,-2.019 8.852,-2.613c5.168,-2.317 6.178,-7.129 3.564,-17.347c-4.871,-19.188 -14.317,-31.96 -28.99,-39.267c-6.713,-3.327 -12.059,-4.99 -19.485,-6.119c-7.069,-1.129 -21.386,-1.069 -27.624,0.059Zm367.128,0c-7.01,1.248 -12,2.852 -17.881,5.882c-19.307,9.742 -30.653,28.099 -33.505,54.118c-0.475,4.634 -0.594,20.436 -0.416,56.079c0.238,53.288 0.179,52.099 3.446,63.565c1.782,6.237 6.535,16.039 10.04,20.792c12,16.158 28.99,23.881 52.574,23.94c16.455,0 28.336,-3.267 39.505,-10.871c3.802,-2.614 10.217,-9.089 13.01,-13.247c7.306,-10.753 11.94,-27.862 11.94,-44.377c0,-5.168 -0.238,-6.594 -1.188,-8.138c-2.139,-3.505 -3.98,-4.04 -13.96,-4.04c-13.664,0 -14.317,0.594 -15.446,13.842c-1.307,14.911 -4.04,22.218 -10.693,28.574c-6.653,6.416 -14.079,8.733 -26.139,8.198c-14.257,-0.654 -22.514,-5.228 -27.564,-15.327c-4.634,-9.267 -4.515,-7.188 -4.515,-67.366c0,-53.346 0,-53.465 1.307,-58.396c3.386,-12.713 10.218,-20.079 21.327,-22.99c5.643,-1.485 14.02,-1.782 19.841,-0.653c13.842,2.613 22.04,11.049 25.01,25.841c1.248,6.238 2.08,7.901 4.753,9.505c3.208,1.96 5.822,1.96 13.307,0.059c8.198,-2.079 10.039,-2.97 11.643,-5.524c3.327,-5.228 -1.604,-24.179 -9.386,-35.881c-8.614,-13.07 -22.693,-21.387 -40.277,-23.941c-5.941,-0.832 -21.149,-0.654 -26.733,0.356Zm-244.871,1.486c-2.138,0.594 -5.049,3.445 -5.643,5.405c-0.178,0.773 -0.357,49.545 -0.416,108.476l-0.059,107.049l48.653,-0.119c48.416,-0.178 48.713,-0.178 50.376,-1.426c3.267,-2.435 4.04,-4.633 4.218,-12.118c0.356,-10.575 -1.366,-14.614 -6.654,-15.981c-1.782,-0.415 -12.831,-0.653 -34.158,-0.653l-31.544,0l0,-91.366c0,-58.277 -0.238,-92.079 -0.594,-93.446c-0.773,-2.673 -3.208,-4.99 -6.238,-5.821c-2.852,-0.773 -15.267,-0.773 -17.941,0Zm144.134,-0.486c0.409,0.001 0.82,0.004 1.232,0.01c8.793,0.119 10.753,0.713 13.307,4.159l1.248,1.663l0,209.584l-1.248,1.604c-2.792,3.802 -3.683,4.099 -13.188,4.277c-8.138,0.178 -8.911,0.119 -11.406,-1.188c-5.227,-2.673 -4.752,7.96 -4.752,-109.366c0,-86.317 0.119,-104.139 0.832,-105.743c0.831,-2.019 2.97,-3.742 5.643,-4.633c0.728,-0.208 4.139,-0.371 7.925,-0.369l0.407,0.002Zm219.668,0.664c-1.188,0.475 -2.673,1.188 -3.208,1.604c-2.614,2.198 -2.555,-1.188 -2.555,108.475c0,117.326 -0.475,106.693 4.753,109.366c2.495,1.248 3.267,1.366 11.406,1.188c9.505,-0.178 10.396,-0.475 13.188,-4.277c1.248,-1.604 1.248,-2.317 1.426,-39.386l0.178,-37.723l5.406,-7.663c3.03,-4.218 5.643,-7.485 5.881,-7.248c0.238,0.297 9.446,15.921 20.376,34.812c10.99,18.891 21.624,36.832 23.703,39.802c11.169,16.396 21.683,22.218 38.97,21.683c7.01,-0.178 8.377,-0.713 10.991,-4.277c1.069,-1.426 1.247,-2.673 1.425,-9.089c0.119,-4.634 -0.059,-8.495 -0.475,-10.04c-1.247,-4.515 -4.871,-6.713 -10.99,-6.772c-5.347,-0.059 -9.446,-3.505 -15.386,-13.01c-1.723,-2.792 -12.713,-22.218 -24.416,-43.129c-11.703,-20.91 -21.505,-38.316 -21.802,-38.732c-0.297,-0.416 -0.356,-1.07 -0.119,-1.485c0.297,-0.416 13.07,-18.832 28.396,-40.872c15.386,-22.039 28.574,-41.287 29.287,-42.712c2.377,-4.575 1.545,-7.901 -2.376,-9.981c-1.485,-0.831 -3.921,-1.069 -11.228,-1.247c-8.91,-0.238 -9.445,-0.178 -12.534,1.247c-2.376,1.07 -3.743,2.198 -5.228,4.337c-1.96,2.911 -55.069,78.059 -58.277,82.455l-1.663,2.317l0,-40.158c0,-26.436 -0.238,-41.168 -0.654,-43.129c-0.713,-3.445 -2.792,-5.584 -6.356,-6.594c-3.208,-0.832 -15.386,-0.713 -18.119,0.238Z" style="fill:#698d23;fill-rule:nonzero;"/><path d="M794.832,291.577c-0.118,0.416 -0.178,24 -0.118,52.456c0.178,51.564 0.178,51.624 1.485,55.485c3.564,10.455 11.049,15.861 22.812,16.515c4.99,0.237 5.109,0.237 5.465,-1.129c0.713,-2.554 0.475,-6.95 -0.416,-7.842c-0.475,-0.475 -2.614,-0.95 -4.99,-1.188c-7.307,-0.594 -11.762,-4.217 -13.129,-10.574c-0.416,-1.96 -0.653,-19.663 -0.653,-52.99c0,-38.138 -0.178,-50.257 -0.713,-50.792c-1.01,-1.01 -9.327,-0.95 -9.743,0.059Zm-243.92,34.812c-4.396,1.426 -6.832,2.971 -10.099,6.476c-8.614,9.207 -7.901,23.465 1.604,32.079c1.96,1.723 7.129,4.93 13.723,8.376c5.881,3.089 12.059,6.535 13.841,7.723c7.307,4.752 9.149,13.188 4.396,19.485c-0.831,1.069 -3.089,2.733 -5.109,3.742c-9.623,4.812 -22.811,-0.059 -25.604,-9.564c-0.534,-1.723 -0.95,-3.861 -0.95,-4.752c0,-1.961 -0.832,-2.317 -5.644,-2.317c-4.93,0 -5.465,0.653 -4.574,5.465c0.357,1.961 1.485,5.287 2.436,7.366c4.871,10.396 13.663,15.684 26.198,15.684c15.386,0 25.307,-8.317 26.02,-21.802c0.475,-8.674 -2.793,-15.862 -9.505,-20.852c-1.723,-1.307 -8.614,-5.346 -15.327,-9.03c-6.713,-3.623 -12.832,-7.188 -13.545,-7.9c-5.227,-4.812 -4.812,-13.486 0.773,-18.119c2.851,-2.317 5.703,-3.089 11.346,-3.089c4.812,0 8.673,1.188 11.109,3.445c1.426,1.307 3.149,4.574 3.683,7.248c0.654,3.267 1.01,3.445 5.169,2.792c4.93,-0.713 5.346,-1.129 4.871,-4.515c-1.01,-7.01 -5.169,-13.188 -10.812,-16.04c-6.178,-3.148 -17.287,-4.039 -24,-1.901Zm478.455,-0.178c-8.614,2.317 -14.02,7.723 -17.169,17.168c-1.603,4.693 -1.603,4.931 -1.841,25.129c-0.178,17.109 -0.059,21.149 0.772,25.248c2.97,15.089 11.941,22.396 27.446,22.396c6.831,0 10.812,-0.832 15.148,-3.09c6.475,-3.445 10.574,-9.267 12.713,-17.999c1.485,-6.06 1.545,-41.882 0.119,-48.238c-2.555,-11.228 -8.258,-17.644 -18.238,-20.614c-4.039,-1.188 -14.554,-1.188 -18.95,0Zm-367.247,0.178c-4.456,1.426 -5.703,2.139 -9.089,5.347c-7.485,7.01 -9.268,17.822 -4.396,26.97c2.792,5.287 6.653,8.317 18.594,14.614c5.881,3.089 12.059,6.535 13.841,7.723c5.525,3.564 8.079,9.445 6.594,15.029c-1.069,3.921 -3.267,6.357 -7.544,8.317c-3.505,1.664 -4.218,1.782 -8.971,1.545c-4.039,-0.238 -5.821,-0.594 -8.198,-1.842c-5.227,-2.673 -8.138,-6.831 -9.029,-13.01l-0.416,-3.148l-4.515,-0.178c-5.822,-0.238 -6.356,0.297 -5.406,5.346c0.357,1.961 1.485,5.287 2.436,7.366c4.871,10.396 13.723,15.684 26.198,15.684c15.386,0 25.307,-8.317 26.02,-21.802c0.475,-8.674 -2.793,-15.862 -9.505,-20.852c-1.723,-1.307 -8.614,-5.346 -15.327,-9.03c-6.713,-3.623 -12.891,-7.306 -13.782,-8.138c-4.99,-4.693 -4.515,-13.307 0.95,-17.822c2.911,-2.376 5.763,-3.148 11.406,-3.148c4.812,0 8.673,1.188 11.109,3.445c1.545,1.366 3.208,4.753 3.683,7.426c0.594,3.03 1.188,3.386 5.347,2.673c4.93,-0.832 5.287,-1.307 4.515,-5.525c-1.664,-8.851 -7.367,-14.851 -16.396,-17.168c-4.812,-1.307 -13.901,-1.188 -18.119,0.178Zm523.841,0c-6.357,2.08 -11.169,6.238 -13.961,12.238c-1.485,3.148 -1.663,4.218 -1.663,9.505c0,6.713 1.01,9.742 4.812,14.376c2.792,3.386 5.049,4.871 18.653,12.119c13.545,7.247 16.634,9.742 17.822,14.673c2.198,9.208 -3.861,16.159 -14.376,16.693c-10.337,0.475 -17.109,-4.574 -19.07,-14.257l-0.772,-3.802l-4.455,-0.178c-5.822,-0.238 -6.178,0.178 -5.287,5.346c0.95,5.347 3.623,10.634 7.247,14.495c5.822,6.119 11.822,8.555 21.267,8.555c11.882,0 20.02,-4.575 24.297,-13.604c1.367,-2.971 1.545,-4.04 1.545,-9.862c0,-5.821 -0.178,-6.891 -1.604,-9.921c-3.148,-6.772 -6.594,-9.504 -24.535,-19.188c-5.881,-3.148 -11.406,-6.475 -12.297,-7.307c-5.643,-5.227 -3.98,-15.148 3.09,-19.128c2.376,-1.307 3.386,-1.485 8.91,-1.485c5.169,0 6.654,0.237 8.555,1.247c3.208,1.664 5.525,4.634 6.475,8.436c0.416,1.663 1.01,3.327 1.366,3.624c0.654,0.653 7.307,-0.357 8.495,-1.307c1.07,-0.891 0.416,-5.763 -1.366,-9.624c-2.673,-5.881 -7.01,-9.446 -14.079,-11.644c-4.812,-1.485 -14.317,-1.485 -19.069,0Zm-983.167,0c-6.357,2.08 -11.169,6.238 -13.961,12.238c-1.485,3.148 -1.663,4.218 -1.663,9.505c0,6.713 1.01,9.742 4.812,14.376c2.792,3.386 5.049,4.871 18.416,12c12.594,6.772 15.148,8.555 16.871,12c2.792,5.406 2.02,10.99 -2.02,15.03c-3.089,3.148 -6.891,4.515 -12.356,4.515c-9.624,0 -16.04,-5.109 -17.882,-14.317l-0.772,-3.802l-4.455,-0.178c-5.822,-0.238 -6.178,0.178 -5.287,5.346c0.95,5.347 3.623,10.634 7.247,14.495c5.822,6.119 11.822,8.555 21.267,8.555c11.882,0 20.02,-4.575 24.297,-13.604c1.367,-2.971 1.545,-4.04 1.545,-9.862c0,-5.821 -0.178,-6.891 -1.604,-9.921c-3.149,-6.772 -6.594,-9.504 -24.535,-19.188c-5.881,-3.148 -11.406,-6.475 -12.297,-7.307c-3.92,-3.623 -4.514,-10.574 -1.247,-15.148c2.614,-3.743 5.94,-5.347 11.881,-5.644c6.059,-0.356 9.446,0.535 12.594,3.208c2.198,1.901 4.218,6 4.218,8.614c0,1.842 1.247,2.258 5.049,1.604c4.872,-0.832 5.228,-1.247 4.753,-4.931c-1.069,-8.554 -6.654,-14.732 -15.802,-17.584c-4.812,-1.485 -14.317,-1.485 -19.069,0Zm196.93,0c-10.277,2.971 -17.168,10.634 -19.426,21.624c-1.307,6.238 -1.366,40.871 -0.059,46.931c2.079,9.98 9.505,17.643 19.604,20.317c4.158,1.069 12,1.188 16.455,0.237c11.763,-2.554 19.604,-11.762 20.198,-23.762l0.178,-3.802l-4.871,-0.178c-5.525,-0.179 -5.049,-0.594 -5.822,5.287c-1.009,7.663 -8.138,13.01 -17.465,13.01c-8.079,0 -13.366,-3.03 -16.515,-9.387c-1.544,-3.148 -1.663,-3.98 -1.841,-11.702l-0.238,-8.317l20.436,-3.802c11.168,-2.079 21.267,-4.099 22.277,-4.575c3.564,-1.425 4.337,-3.623 4.337,-12.475c0,-12.594 -1.367,-17.109 -6.832,-22.574c-3.327,-3.327 -7.782,-5.881 -12.475,-7.129c-4.218,-1.128 -13.426,-0.95 -17.941,0.297Zm78.238,-0.297c-8.139,2.258 -13.545,7.545 -16.04,15.683c-1.485,4.812 -1.485,7.901 0,12.773c1.366,4.455 4.396,8.792 8.02,11.584c1.426,1.069 7.544,4.574 13.604,7.841c16.871,8.971 18.831,10.753 19.247,17.585c0.357,4.93 -0.059,6.297 -2.673,9.207c-3.149,3.505 -6.178,4.812 -11.584,5.169c-10.218,0.594 -18.119,-5.109 -19.307,-13.961c-0.475,-4.099 -0.891,-4.336 -5.941,-4.336c-5.227,0 -5.406,0.237 -4.455,5.822c1.782,10.574 9.624,19.128 20.02,21.861c3.505,0.95 12.534,1.069 16.277,0.178c12.594,-2.851 20.138,-14.138 18,-26.673c-0.891,-5.228 -2.792,-9.089 -6.238,-12.654c-3.208,-3.267 -4.218,-3.92 -19.425,-12.237c-12,-6.594 -13.367,-7.604 -15.208,-10.99c-1.189,-2.139 -1.248,-7.188 -0.119,-9.862c2.317,-5.465 7.604,-8.019 15.861,-7.604c8.198,0.357 12.178,3.387 13.723,10.278c0.356,1.604 0.95,3.089 1.247,3.326c0.594,0.357 3.921,-0.118 7.604,-0.95c1.307,-0.357 1.367,-0.594 1.129,-3.743c-0.653,-8.792 -7.604,-16.277 -17.168,-18.475c-3.565,-0.832 -13.307,-0.713 -16.574,0.178Zm-315.743,0.654l0,87.92l-9.505,0l-0.178,-3.445l-0.178,-3.505l-3.148,2.97c-4.515,4.277 -9.387,5.703 -18.06,5.347c-4.455,-0.238 -7.307,-0.654 -9.505,-1.545c-8.317,-3.208 -13.901,-10.752 -15.505,-20.911c-0.713,-4.217 -0.95,-66.059 -0.237,-66.712c0.178,-0.238 2.435,-0.416 4.99,-0.416c3.623,0 4.633,0.178 4.93,0.95c0.179,0.535 0.357,15.03 0.357,32.258c0,26.257 0.119,31.841 0.891,34.811c2.02,7.783 7.307,11.525 16.158,11.585c9.089,0 15.446,-4.456 18.06,-12.773c0.534,-1.722 0.831,-11.168 1.069,-34.455l0.356,-32.079l9.505,0Zm733.663,0l0,87.92l-9.505,0l-0.178,-3.445l-0.179,-3.505l-3.148,2.97c-4.515,4.277 -9.386,5.703 -18.059,5.347c-7.307,-0.357 -11.347,-1.664 -15.565,-4.99c-3.505,-2.733 -6.772,-7.664 -8.435,-12.594c-1.307,-3.921 -1.367,-4.634 -1.545,-37.188c-0.119,-18.238 -0.059,-33.565 0.119,-33.981c0.475,-1.307 9.624,-1.188 10.099,0.119c0.178,0.535 0.356,15.149 0.356,32.555c0,27.208 0.119,32.079 0.951,34.811c2.317,7.901 7.247,11.288 16.277,11.288c8.733,0 15.03,-4.396 17.703,-12.297c0.772,-2.436 1.01,-7.604 1.247,-34.931l0.357,-32.079l9.505,0Zm-160.752,-0.594c-6.892,1.841 -12.892,6.831 -15.684,12.891c-3.267,7.128 -3.564,9.802 -3.564,31.663c0,22.396 0.238,24.475 3.624,31.545c3.386,7.128 9.386,11.762 17.346,13.307c4.753,0.95 15.505,0.475 19.129,-0.832c7.188,-2.614 12.535,-8.495 15.267,-16.634c1.545,-4.752 1.604,-5.168 1.842,-23.703c0.238,-19.96 -0.119,-25.485 -2.258,-31.96c-2.673,-8.198 -8.97,-14.198 -16.811,-16.158c-4.693,-1.189 -14.852,-1.248 -18.891,-0.119Zm-706.811,-34.515c-0.476,0.594 -0.594,17.228 -0.535,61.901l0.178,61.128l10.099,0l0.178,-3.445l0.179,-3.446l2.97,2.674c4.752,4.277 8.317,5.406 17.168,5.406c7.248,0 7.545,-0.06 11.525,-2.02c4.871,-2.376 9.742,-7.07 11.822,-11.406c3.148,-6.475 3.386,-8.614 3.386,-30.891c0,-11.525 -0.238,-21.98 -0.594,-23.763c-1.485,-7.722 -6.951,-15.326 -13.604,-18.831c-10.218,-5.466 -24.357,-4.753 -31.069,1.544l-1.664,1.545l0,-19.901c0,-14.673 -0.178,-20.079 -0.713,-20.614c-1.01,-1.01 -8.435,-0.95 -9.326,0.119Zm234.296,35.525c-0.178,0.415 -0.237,20.257 -0.178,44.138l0.178,43.366l4.931,0.179l4.871,0.178l-0.119,-44.139l-0.178,-44.138l-4.633,-0.178c-3.327,-0.119 -4.693,0.059 -4.872,0.594Zm660.891,0.475l0,-16.218c0,-8.97 0.178,-16.455 0.415,-16.693c0.238,-0.238 2.436,-0.297 4.931,-0.238l4.456,0.179l0.178,16.455l0.119,16.515l9.445,0c11.109,0 11.347,0.119 11.347,5.049c0,5.347 0.594,5.05 -10.812,5.05l-10.04,0l0.238,28.336c0.237,31.307 0.297,31.664 3.921,35.288c2.376,2.376 6.059,3.504 11.524,3.504c1.723,0 3.446,0.298 3.862,0.713c0.713,0.713 1.01,6.773 0.356,8.436c-0.535,1.366 -8.317,1.248 -13.366,-0.119c-8.258,-2.317 -12.654,-6.416 -15.565,-14.673c-0.415,-1.129 -0.772,-12.654 -1.009,-31.485l-0.297,-29.703l-8.911,-0.594l-0.179,-4.04c-0.237,-5.346 0.179,-5.762 5.288,-5.762l4.099,0Zm186.95,-1.723c-3.149,0.772 -6.951,2.733 -9.149,4.871l-1.96,1.842l0,-2.376c0,-3.624 -0.416,-3.862 -5.703,-3.683l-4.693,0.178l0,87.92l4.871,0.179c4.693,0.178 4.931,0.118 5.228,-1.188c0.178,-0.773 0.356,-15.802 0.475,-33.446c0.119,-31.188 0.178,-32.139 1.366,-34.812c1.664,-3.564 4.634,-6.831 7.604,-8.435c2.08,-1.129 3.387,-1.307 8.674,-1.307c5.584,0 6.594,0.178 9.208,1.544c3.505,1.782 6.415,5.347 7.841,9.624c0.891,2.733 1.01,7.069 1.307,35.465l0.356,32.376l9.505,0l0.179,-31.96c0.118,-34.871 0,-36.891 -3.208,-43.485c-3.149,-6.356 -9.98,-11.703 -17.05,-13.366c-3.029,-0.713 -11.762,-0.654 -14.851,0.059Zm-791.167,0.713c-3.802,1.307 -8.733,4.574 -8.971,5.941c-0.059,0.415 -0.237,-0.773 -0.416,-2.555l-0.356,-3.267l-4.396,-0.178c-2.436,-0.119 -4.634,0.059 -4.871,0.297c-0.713,0.712 -0.713,86.97 -0.06,87.623c0.297,0.297 2.495,0.475 4.931,0.357l4.396,-0.179l0.297,-32.673c0.297,-31.782 0.356,-32.732 1.604,-35.822c1.842,-4.455 3.743,-6.712 7.366,-8.732c2.971,-1.664 3.624,-1.782 9.446,-1.782c5.287,0 6.594,0.178 8.614,1.307c3.208,1.722 5.881,4.633 7.544,8.198c1.367,2.97 1.367,3.089 1.664,36.237l0.297,33.267l4.871,0.179c4.752,0.178 4.931,0.118 5.228,-1.248c0.237,-0.772 0.297,-15.861 0.118,-33.445c-0.178,-26.555 -0.356,-32.555 -1.128,-34.99c-4.04,-13.189 -13.129,-19.901 -26.792,-19.901c-4.04,0 -6.476,0.356 -9.386,1.366Zm660.771,-0.095c0.523,0.001 1.117,0.013 1.785,0.036l4.931,0.178l0,87.92l-10.099,0l-0.178,-43.366c-0.06,-23.881 0,-43.723 0.178,-44.138c0.142,-0.427 1.076,-0.627 3.253,-0.63l0.13,0Zm-226.749,10.432c4.633,2.435 7.485,6.831 8.614,13.306c0.415,2.496 0.594,10.515 0.475,22.515c-0.178,17.941 -0.238,18.832 -1.604,22.159c-1.723,4.396 -6.06,8.851 -9.921,10.158c-1.544,0.535 -4.634,0.951 -6.772,0.951c-8.673,0 -15.149,-5.763 -17.168,-15.327c-1.01,-4.871 -0.832,-36.238 0.237,-41.347c1.426,-6.831 4.693,-11.049 10.159,-13.128c3.504,-1.307 12.891,-0.891 15.98,0.713Zm-688.455,0.356c5.406,2.792 8.614,7.426 9.743,14.139c0.772,5.049 0.772,34.396 -0.06,38.851c-1.307,7.188 -5.762,13.069 -11.346,14.911c-2.139,0.713 -4.277,0.891 -7.545,0.713c-7.366,-0.416 -12.713,-3.505 -15.683,-9.089c-1.247,-2.317 -1.307,-2.911 -1.307,-25.604l0,-23.169l1.782,-3.504c3.268,-6.416 9.03,-9.446 16.99,-8.971c3.268,0.178 5.288,0.654 7.426,1.723Zm981.326,-1.01c3.386,1.188 6.712,4.337 8.435,8.02c2.198,4.634 2.674,10.812 2.436,29.406c-0.238,16.277 -0.297,17.346 -1.604,20.673c-1.604,4.099 -5.228,8.257 -8.673,9.98c-1.485,0.773 -3.981,1.367 -6.594,1.545c-7.961,0.534 -13.486,-2.673 -16.99,-9.862l-1.961,-3.98l0,-21.386c0,-19.01 0.119,-21.742 1.069,-24.416c1.723,-4.99 5.703,-8.911 10.515,-10.396c2.733,-0.831 10.337,-0.594 13.367,0.416Zm-628.99,0.297c4.099,1.545 7.367,4.693 8.377,8.079c0.415,1.307 0.712,5.169 0.712,8.555l0,6.237l-16.752,3.149c-9.267,1.723 -17.465,3.267 -18.238,3.445l-1.366,0.357l0.238,-9.149c0.178,-7.901 0.416,-9.564 1.604,-12.178c1.782,-4.039 5.168,-7.247 9.089,-8.614c4.515,-1.544 11.881,-1.485 16.336,0.119Zm558.712,-45.089c-1.128,1.129 -0.95,12.594 0.238,13.782c1.129,1.188 10.277,1.367 11.406,0.238c0.951,-0.951 0.951,-13.069 0,-14.02c-0.95,-0.95 -10.693,-0.95 -11.644,0Zm-714.355,-0.297c-0.772,0.713 -0.475,13.545 0.297,14.317c0.832,0.832 9.861,0.95 11.168,0.119c0.654,-0.416 0.951,-2.02 1.07,-6.476c0.297,-8.257 0.237,-8.376 -6.654,-8.376c-3.03,0 -5.703,0.178 -5.881,0.416Zm-177.505,-256.99c-15.089,1.426 -28.158,7.01 -37.366,15.98c-9.149,8.911 -14.495,19.486 -17.941,35.347c-1.247,5.762 -1.307,7.426 -1.485,57.03c-0.178,34.752 -0.059,53.108 0.416,57.504c2.614,25.842 14.258,44.317 33.564,53.347c12.713,6 30.832,7.901 47.347,4.99c12.416,-2.139 23.228,-7.723 31.366,-15.98c8.852,-9.03 13.901,-19.782 17.05,-36.178c0.95,-4.99 1.069,-10.159 1.069,-59.228c0,-41.584 -0.178,-54.713 -0.772,-57.921c-4.396,-23.821 -13.782,-38.673 -29.881,-47.406c-11.109,-6.059 -27.862,-8.97 -43.367,-7.485Zm351.98,1.723c38.614,0 57.267,0.178 58.396,0.654c4.931,1.841 6.416,6 6,16.693c-0.178,5.703 -0.475,7.128 -1.545,8.91c-2.613,4.218 -0.653,4.04 -46.99,4.04l-41.643,0l0,64.693l31.96,0.178c30.832,0.178 31.961,0.238 33.505,1.367c3.149,2.316 3.743,4.514 3.743,13.663c0,9.148 -0.535,10.99 -4.04,13.604c-1.663,1.247 -2.198,1.247 -33.445,1.426l-31.723,0.178l0,65.881l41.228,0c27.742,0 41.821,0.178 42.95,0.653c4.931,1.842 6.416,6 6,16.693c-0.238,5.822 -0.475,7.129 -1.663,9.03c-2.495,4.099 0.772,3.921 -62.377,3.921l-57.029,0l0,-221.584l56.673,0Zm-229.96,0.654c-2.317,0.653 -4.753,3.504 -5.228,6.059c-0.178,1.069 -0.237,48.713 -0.178,105.98l0.178,104.079l1.782,1.842c2.555,2.614 4.812,3.089 14.674,2.851c8.316,-0.178 8.792,-0.237 10.277,-1.663c3.445,-3.268 3.445,-3.03 3.327,-27.624c-0.06,-12.416 -0.357,-44.257 -0.654,-70.693c-0.297,-26.495 -0.535,-51.98 -0.535,-56.733l0,-8.613l1.367,3.267c2.317,5.465 26.495,63.564 46.099,110.792c10.158,24.475 19.188,45.564 20.019,46.812c2.674,4.218 4.753,4.693 19.248,4.455l12.535,-0.178l1.96,-2.198c1.069,-1.188 2.257,-3.149 2.614,-4.456c0.891,-3.089 0.891,-203.702 0,-207.504c-1.366,-5.881 -4.812,-7.367 -16.753,-7.07c-9.148,0.238 -10.455,0.773 -12.534,4.991c-1.129,2.257 -1.129,3.623 -0.475,69.445c0.415,36.95 0.831,72.653 1.009,79.366c0.179,7.604 0.119,11.763 -0.237,10.99c-0.535,-1.247 -18.535,-44.079 -48.357,-115.366c-18.356,-43.841 -18.653,-44.376 -20.732,-46.336c-2.911,-2.733 -5.05,-3.149 -16.634,-3.09c-6,0 -11.703,0.298 -12.772,0.595Zm-100.337,41.881c0.832,0.831 0.951,7.782 0.951,67.96c0,60.178 -0.119,67.129 -0.951,67.96c-0.772,0.773 -2.732,0.951 -12,0.951c-6.118,0 -11.524,-0.297 -12,-0.594c-0.772,-0.476 -0.95,-6.891 -1.188,-49.842c-0.237,-39.326 -0.475,-49.485 -1.069,-50.079c-0.535,-0.535 -3.208,-0.832 -8.614,-0.95c-4.336,-0.119 -8.198,-0.535 -8.554,-0.832c-1.188,-0.951 -1.07,-16.099 0.119,-17.109c0.475,-0.416 3.207,-0.951 6,-1.248c6.118,-0.653 8.792,-1.306 11.346,-2.91c2.554,-1.545 5.228,-5.347 6.475,-9.09c1.664,-5.168 1.664,-5.168 10.693,-5.168c6.357,0 8.08,0.178 8.792,0.951Z" style="fill:#003966;fill-rule:nonzero;"/></svg>