<?xml version="1.0" encoding="utf-8"?>
<!-- Generator: Adobe Illustrator 22.0.1, SVG Export Plug-In . SVG Version: 6.00 Build 0)  -->
<svg version="1.1" id="Layer_1" xmlns="http://www.w3.org/2000/svg" xmlns:xlink="http://www.w3.org/1999/xlink" x="0px" y="0px"
	 viewBox="0 0 416.3 58.5" style="enable-background:new 0 0 416.3 58.5;" xml:space="preserve">
      <defs>
        <linearGradient id="MyGradient">
          <stop offset="0%" stop-color="#00AFAC" />
          <stop offset="25%" stop-color="#418f8f" />
          <stop offset="50%" stop-color="#f9d126" />
          <stop offset="75%" stop-color="#efac52" />
        </linearGradient>
      </defs>
<style type="text/css">
	.st0{fill:#000;stroke:#FFFFFF;stroke-width:0.5;stroke-miterlimit:10;}
	.st1{fill:#000;stroke:#FFFFFF;stroke-width:0.25;stroke-miterlimit:10;}
	.st2{fill:#000;stroke:#FFFFFF;stroke-width:0.15;stroke-miterlimit:10;}
	.st3{fill:none;stroke:url(#MyGradient);stroke-miterlimit:10;}
	.st4{fill:none;stroke:#161615;stroke-width:0.5;stroke-miterlimit:10;}
	.house-1{fill:#4390a1;}
	.house-2{fill:#428f98;}
	.house-3{fill:#619a7d;}
	.house-4{fill:#a2b258;}
	.house-5{fill:#e5ca31;}
	.house-6{fill:#f6c633;}
	.house-7{fill:#f3bc3f;}
	.house-8{fill:#f2b547;}
	.dot{stroke:#efac52;}
	.red-fill{fill:#f00;}
</style>
<path class="st0 house-8" d="M284,45.7l0.9-0.9v7.3h1.7v-9L297.7,32l11.1,11.1v13.8h1.7V44.8l0.9,0.9c0.2,0.2,0.4,0.3,0.6,0.3
	c0.2,0,0.4-0.1,0.6-0.3c0.3-0.3,0.3-0.9,0-1.2l-2.4-2.4c0,0,0,0,0,0l-11.9-11.9c-0.3-0.3-0.9-0.3-1.2,0l-11.9,11.9c0,0,0,0,0,0
	l-2.4,2.4c-0.3,0.3-0.3,0.9,0,1.2C283.1,46,283.7,46,284,45.7z"/>
<path class="st0 house-8" d="M295.3,46.6h-4.8c-0.5,0-0.9,0.4-0.9,0.9v5.7h1.7v-4.8h3.1v6.2h1.7v-7.1C296.2,47,295.8,46.6,295.3,46.6z"/>
<path class="st0 house-3" d="M126,36.5h1.7v-2.9h3.1v2.1h1.7v-3c0-0.5-0.4-0.9-0.9-0.9h-4.8c-0.5,0-0.9,0.4-0.9,0.9V36.5z"/>
<path class="st0 house-2" d="M77.8,40.3h-4.8c-0.5,0-0.9,0.4-0.9,0.9v8h1.7v-7.1H77v5.7h1.7v-6.6C78.7,40.7,78.3,40.3,77.8,40.3z"/>
<path class="st0 house-3" d="M117.4,31.9h-7.1c-0.5,0-0.9,0.4-0.9,0.9v7.2h1.7v-6.3h5.4v4.7h1.7v-5.5C118.2,32.2,117.8,31.9,117.4,31.9z"/>
<path class="st0 house-1" d="M47,47.9h-4.8c-0.5,0-0.9,0.4-0.9,0.9v7.6h1.7v-6.8h3.1v5.7h1.7v-6.6C47.8,48.3,47.4,47.9,47,47.9z"/>
<polygon class="st0 house-5" points="200.4,30.9 202.2,30.9 202.2,26.2 205.2,26.2 205.2,31.4 206.9,31.4 206.9,24.5 200.4,24.5 "/>
<path class="st0 house-3" d="M103.1,31.2c0.1,0,0.1,0,0.2,0l1.3-0.3v10.1h1.7V30.4l15-3.7v10.5h1.7V19.7l12.6,5.4v9.6h1.7v-8.9l1.2,0.5
	c0.1,0,0.2,0.1,0.3,0.1c0.3,0,0.6-0.2,0.8-0.5c0.2-0.4,0-0.9-0.4-1.1l-16.7-7.1c0,0,0,0,0,0c0,0-0.1,0-0.1,0c-0.2,0-0.4,0-0.5,0
	c0,0-0.1,0-0.1,0.1c-0.1,0-0.1,0.1-0.2,0.1c-0.1,0.1-0.1,0.1-0.2,0.2c0,0,0,0,0,0c0,0,0,0,0,0c0,0.1,0,0.1,0,0.2c0,0.1,0,0.1,0,0.1
	c0,0,0,0,0,0v6.5l-18.4,4.6c-0.5,0.1-0.7,0.6-0.6,1C102.3,30.9,102.7,31.2,103.1,31.2z"/>
<path class="st0 house-1" d="M35.1,47.3c0.2,0,0.4-0.1,0.6-0.3l0.9-0.9v11.2h1.7V44.4l6.3-6.3l6.3,6.3v9.9h1.7v-8.2l0.9,0.9
	c0.3,0.3,0.9,0.3,1.2,0c0.3-0.3,0.3-0.9,0-1.2l-2.4-2.4c0,0,0,0,0,0l-7.1-7.1c-0.3-0.3-0.9-0.3-1.2,0l-7.1,7.1c0,0,0,0,0,0l-2.4,2.4
	c-0.3,0.3-0.3,0.9,0,1.2C34.6,47.2,34.8,47.3,35.1,47.3z"/>
<path class="st0 house-2" d="M66.5,39.4l0.9-0.9v12h1.7V36.8l11.1-11.1l11.1,11.1l-0.1,7h1.7l0.1-5.3l0.9,0.9c0.2,0.2,0.4,0.3,0.6,0.3
	c0.2,0,0.4-0.1,0.6-0.3c0.3-0.3,0.3-0.9,0-1.2l-2.4-2.4c0,0,0,0,0,0L80.8,23.9c-0.3-0.3-0.9-0.3-1.2,0L67.7,35.8c0,0,0,0,0,0
	l-2.4,2.4c-0.3,0.3-0.3,0.9,0,1.2C65.6,39.8,66.2,39.8,66.5,39.4z"/>
<path class="st0 house-5" d="M179.9,16.4c0.2,0,0.4-0.1,0.6-0.3l0.9-0.9v15.7h1.7V13.5l6.3-6.3l6.3,6.3v17.4h1.7V15.2l0.9,0.9
	c0.2,0.2,0.4,0.3,0.6,0.3h15.8V33h1.7V16.4h1.5c0.3,0,0.7-0.2,0.8-0.5c0.1-0.3,0.1-0.7-0.2-0.9l-9.5-9.5c-0.1-0.1-0.2-0.1-0.3-0.2
	c-0.1,0-0.2-0.1-0.3-0.1h-19.1c-0.1,0-0.2,0-0.3,0.1c-0.1,0-0.2,0.1-0.3,0.2l-7.1,7.1l-2.4,2.4c-0.3,0.3-0.3,0.9,0,1.2
	C179.4,16.3,179.6,16.4,179.9,16.4z M208.1,6.9l7.8,7.8h-16.6l-2.1-2.1c0,0,0,0,0,0l-5.7-5.7H208.1z"/>
<path class="st0 house-6" d="M238.4,33.4v4.7h1.7v-4.7c6.6-0.4,11.9-6,11.9-12.7c0-7-5.7-12.8-12.8-12.8c-7,0-12.8,5.7-12.8,12.8
	C226.5,27.5,231.8,33,238.4,33.4z M239.2,9.6c6.1,0,11.1,5,11.1,11.1c0,5.8-4.5,10.6-10.2,11v-3.5l4.5-4.5c0.3-0.3,0.3-0.9,0-1.2
	c-0.3-0.3-0.9-0.3-1.2,0l-3.3,3.3v-9.8c0-0.5-0.4-0.9-0.9-0.9c-0.5,0-0.9,0.4-0.9,0.9V21l-3.3-3.3c-0.3-0.3-0.9-0.3-1.2,0
	c-0.3,0.3-0.3,0.9,0,1.2l4.5,4.5v8.3c-5.7-0.4-10.2-5.2-10.2-11C228.2,14.6,233.1,9.6,239.2,9.6z"/>
<path class="st1 house-7" d="M266.6,46.7h1.3v-4h9.6l-10.3-30.8L257,42.8h9.6V46.7z M258.9,41.4l8.4-25.2l8.4,25.2H268v-2.8l3.5-3.5
	c0.3-0.3,0.3-0.7,0-0.9c-0.3-0.3-0.7-0.3-0.9,0l-2.6,2.6V29c0-0.4-0.3-0.7-0.7-0.7c-0.4,0-0.7,0.3-0.7,0.7v5.9l-2.6-2.6
	c-0.3-0.3-0.7-0.3-0.9,0c-0.3,0.3-0.3,0.7,0,0.9l3.5,3.5v4.7H258.9z"/>
<path class="st2 house-4" d="M157.9,28.3v3.4h1.2v-3.4c4.7-0.3,8.5-4.2,8.5-9c0-4.6-3.8-19.2-9.1-19.2s-9.1,14.6-9.1,19.2
	C149.5,24.1,153.2,28,157.9,28.3z M158.5,1.3c4,0,7.8,13.1,7.8,18c0,4.1-3.2,7.5-7.2,7.8v-2.5l3.2-3.2c0.2-0.2,0.2-0.6,0-0.9
	c-0.2-0.2-0.6-0.2-0.9,0l-2.3,2.3v-6.7l3.2-3.2c0.2-0.2,0.2-0.6,0-0.9c-0.2-0.2-0.6-0.2-0.9,0l-2.3,2.3v-3.6c0-0.3-0.3-0.6-0.6-0.6
	c-0.3,0-0.6,0.3-0.6,0.6v8.7l-2.3-2.3c-0.2-0.2-0.6-0.2-0.9,0c-0.2,0.2-0.2,0.6,0,0.9l3.2,3.2v5.9c-4-0.3-7.2-3.7-7.2-7.8
	C150.7,14.4,154.5,1.3,158.5,1.3z"/>
<g>
	<g>
		<path class="st3 dot" d="M335.9,42.9c0-0.4,0.3-0.7,0.7-0.7c0.4,0,0.7,0.3,0.7,0.7c0,0.4-0.3,0.7-0.7,0.7
			C336.2,43.6,335.9,43.3,335.9,42.9z"/>
	</g>
	<g>
		<path class="st3" d="M416.1,50.1c-1.1-0.3-2.2-0.6-3.3-0.7c-3.7-0.3-7.3,1.7-10.2,3.8c-1,0.8-2.2,1.6-3.5,1.5
			c-2.5-0.1-2.3-2.2-1.4-4c1.8-3.3,3.8-6.4,5.6-9.6c-0.5,0.8-1.5,2.5-2.5,4.3c1.7-0.1,3.5-0.5,5.2-0.9c-4.9,1.2-8.2,1.2-12.1,0.8
			c-1.2-0.1-2.6-0.2-3.2,1c-0.3,0.6-0.4,1.4,0,2c0.4,0.5,1,0.9,1.5,1.2c0.6,0.3,1.1,0.6,1.6,1c1.8,1.6,0.3,4.2-2,4.1
			c-1.3-0.1-2.3-1.1-3.4-1.6c-0.5-0.2-1.1-0.4-1.6-0.3c-0.8,0.1-1.3,0.6-2,1c-0.9,0.5-2,0.9-3,0.9c-2.7,0-4-2.7-3-5
			c0.9-2.3,3.4-4.3,5.9-4.4c0.9,0,2.1,0.2,1.9,1.4c-0.1,1.1-1.9,2.2-2.7,2.7c-2.1,1.3-4.3,2.4-6.4,3.7c-1.5,0.9-3.7,2.4-5.5,1.3
			c-1.6-1,0.1-3.6,0.7-4.7c2-3.3,2.6-4.4,2.6-4.4s-0.8,1.4-1.6,2.4c-0.3,0.4-4.2,6.5-7.2,7.1c-0.8,0.2-2,0-2.5-0.7
			c-0.7-1-0.3-2.2,0.2-3.1c0.9-1.8,1.9-3.5,3-5.2c-2.4,4-5.3,6.9-5.3,6.9c-1.2,1.1-3,2.7-4.8,1.8c-1.5-0.8-2-3-3.1-4.2
			c-2-2-4.1-0.3-5.4,1.2c-1.6,1.8-3.7,3.3-6.1,2.3c-1.3-0.5-1.9-1.8-2.1-3.1c-0.5-2.6,0.6-5.6,1.9-7.8c3.4-6,10.9-11.6,17.1-8.8
			c5.3,2.4,2.3,9.7-0.1,13.4c-3,4.4-8.4,9.5-15.4,9.6c-2.5,0-5.1-0.7-6.9-2.5c-2.5-2.5-2.6-6.1-1.1-9.1c-3.1,7.2-9,11-13.2,11.3
			c0,0-17.6,3.8-76.6-17.1c-68.9-24.5-163.1,6.9-163.1,6.9S40.1,61.1,0,57.4"/>
	</g>
</g>
<path class="st4" d="M335.6,45.4"/>
</svg>
